<?xml version="1.0" encoding="utf-8"?>
<svg xmlns="http://www.w3.org/2000/svg" xmlns:xlink="http://www.w3.org/1999/xlink" xml:space="preserve" width="888" height="888" viewBox="0 0 888 888"><g fill="#000000">
<g transform="translate(264,48) scale(4.12)"><rect width="6" height="6"/></g>
<g transform="translate(312,48) scale(4.12)"><rect width="6" height="6"/></g>
<g transform="translate(360,48) scale(4.12)"><rect width="6" height="6"/></g>
<g transform="translate(384,48) scale(4.12)"><rect width="6" height="6"/></g>
<g transform="translate(432,48) scale(4.12)"><rect width="6" height="6"/></g>
<g transform="translate(456,48) scale(4.12)"><rect width="6" height="6"/></g>
<g transform="translate(480,48) scale(4.12)"><rect width="6" height="6"/></g>
<g transform="translate(504,48) scale(4.12)"><rect width="6" height="6"/></g>
<g transform="translate(528,48) scale(4.12)"><rect width="6" height="6"/></g>
<g transform="translate(600,48) scale(4.12)"><rect width="6" height="6"/></g>
<g transform="translate(264,72) scale(4.12)"><rect width="6" height="6"/></g>
<g transform="translate(288,72) scale(4.12)"><rect width="6" height="6"/></g>
<g transform="translate(312,72) scale(4.12)"><rect width="6" height="6"/></g>
<g transform="translate(360,72) scale(4.12)"><rect width="6" height="6"/></g>
<g transform="translate(384,72) scale(4.12)"><rect width="6" height="6"/></g>
<g transform="translate(408,72) scale(4.12)"><rect width="6" height="6"/></g>
<g transform="translate(432,72) scale(4.12)"><rect width="6" height="6"/></g>
<g transform="translate(456,72) scale(4.12)"><rect width="6" height="6"/></g>
<g transform="translate(528,72) scale(4.12)"><rect width="6" height="6"/></g>
<g transform="translate(576,72) scale(4.12)"><rect width="6" height="6"/></g>
<g transform="translate(624,72) scale(4.12)"><rect width="6" height="6"/></g>
<g transform="translate(240,96) scale(4.12)"><rect width="6" height="6"/></g>
<g transform="translate(264,96) scale(4.12)"><rect width="6" height="6"/></g>
<g transform="translate(312,96) scale(4.12)"><rect width="6" height="6"/></g>
<g transform="translate(336,96) scale(4.12)"><rect width="6" height="6"/></g>
<g transform="translate(360,96) scale(4.12)"><rect width="6" height="6"/></g>
<g transform="translate(456,96) scale(4.12)"><rect width="6" height="6"/></g>
<g transform="translate(480,96) scale(4.12)"><rect width="6" height="6"/></g>
<g transform="translate(504,96) scale(4.12)"><rect width="6" height="6"/></g>
<g transform="translate(528,96) scale(4.12)"><rect width="6" height="6"/></g>
<g transform="translate(600,96) scale(4.12)"><rect width="6" height="6"/></g>
<g transform="translate(240,120) scale(4.12)"><rect width="6" height="6"/></g>
<g transform="translate(288,120) scale(4.12)"><rect width="6" height="6"/></g>
<g transform="translate(384,120) scale(4.12)"><rect width="6" height="6"/></g>
<g transform="translate(408,120) scale(4.12)"><rect width="6" height="6"/></g>
<g transform="translate(432,120) scale(4.12)"><rect width="6" height="6"/></g>
<g transform="translate(504,120) scale(4.12)"><rect width="6" height="6"/></g>
<g transform="translate(528,120) scale(4.12)"><rect width="6" height="6"/></g>
<g transform="translate(552,120) scale(4.12)"><rect width="6" height="6"/></g>
<g transform="translate(576,120) scale(4.12)"><rect width="6" height="6"/></g>
<g transform="translate(624,120) scale(4.12)"><rect width="6" height="6"/></g>
<g transform="translate(240,144) scale(4.12)"><rect width="6" height="6"/></g>
<g transform="translate(264,144) scale(4.12)"><rect width="6" height="6"/></g>
<g transform="translate(312,144) scale(4.12)"><rect width="6" height="6"/></g>
<g transform="translate(408,144) scale(4.12)"><rect width="6" height="6"/></g>
<g transform="translate(456,144) scale(4.12)"><rect width="6" height="6"/></g>
<g transform="translate(480,144) scale(4.12)"><rect width="6" height="6"/></g>
<g transform="translate(624,144) scale(4.12)"><rect width="6" height="6"/></g>
<g transform="translate(240,168) scale(4.12)"><rect width="6" height="6"/></g>
<g transform="translate(288,168) scale(4.12)"><rect width="6" height="6"/></g>
<g transform="translate(336,168) scale(4.12)"><rect width="6" height="6"/></g>
<g transform="translate(384,168) scale(4.12)"><rect width="6" height="6"/></g>
<g transform="translate(408,168) scale(4.12)"><rect width="6" height="6"/></g>
<g transform="translate(432,168) scale(4.12)"><rect width="6" height="6"/></g>
<g transform="translate(528,168) scale(4.12)"><rect width="6" height="6"/></g>
<g transform="translate(552,168) scale(4.12)"><rect width="6" height="6"/></g>
<g transform="translate(240,192) scale(4.12)"><rect width="6" height="6"/></g>
<g transform="translate(288,192) scale(4.12)"><rect width="6" height="6"/></g>
<g transform="translate(336,192) scale(4.12)"><rect width="6" height="6"/></g>
<g transform="translate(384,192) scale(4.12)"><rect width="6" height="6"/></g>
<g transform="translate(432,192) scale(4.12)"><rect width="6" height="6"/></g>
<g transform="translate(480,192) scale(4.12)"><rect width="6" height="6"/></g>
<g transform="translate(528,192) scale(4.12)"><rect width="6" height="6"/></g>
<g transform="translate(576,192) scale(4.12)"><rect width="6" height="6"/></g>
<g transform="translate(624,192) scale(4.12)"><rect width="6" height="6"/></g>
<g transform="translate(240,216) scale(4.12)"><rect width="6" height="6"/></g>
<g transform="translate(336,216) scale(4.12)"><rect width="6" height="6"/></g>
<g transform="translate(408,216) scale(4.12)"><rect width="6" height="6"/></g>
<g transform="translate(552,216) scale(4.12)"><rect width="6" height="6"/></g>
<g transform="translate(576,216) scale(4.12)"><rect width="6" height="6"/></g>
<g transform="translate(600,216) scale(4.12)"><rect width="6" height="6"/></g>
<g transform="translate(624,216) scale(4.12)"><rect width="6" height="6"/></g>
<g transform="translate(48,240) scale(4.12)"><rect width="6" height="6"/></g>
<g transform="translate(96,240) scale(4.12)"><rect width="6" height="6"/></g>
<g transform="translate(120,240) scale(4.12)"><rect width="6" height="6"/></g>
<g transform="translate(144,240) scale(4.12)"><rect width="6" height="6"/></g>
<g transform="translate(168,240) scale(4.12)"><rect width="6" height="6"/></g>
<g transform="translate(192,240) scale(4.12)"><rect width="6" height="6"/></g>
<g transform="translate(288,240) scale(4.12)"><rect width="6" height="6"/></g>
<g transform="translate(312,240) scale(4.12)"><rect width="6" height="6"/></g>
<g transform="translate(336,240) scale(4.12)"><rect width="6" height="6"/></g>
<g transform="translate(360,240) scale(4.12)"><rect width="6" height="6"/></g>
<g transform="translate(384,240) scale(4.12)"><rect width="6" height="6"/></g>
<g transform="translate(408,240) scale(4.12)"><rect width="6" height="6"/></g>
<g transform="translate(456,240) scale(4.12)"><rect width="6" height="6"/></g>
<g transform="translate(480,240) scale(4.12)"><rect width="6" height="6"/></g>
<g transform="translate(576,240) scale(4.12)"><rect width="6" height="6"/></g>
<g transform="translate(672,240) scale(4.12)"><rect width="6" height="6"/></g>
<g transform="translate(696,240) scale(4.12)"><rect width="6" height="6"/></g>
<g transform="translate(720,240) scale(4.12)"><rect width="6" height="6"/></g>
<g transform="translate(744,240) scale(4.12)"><rect width="6" height="6"/></g>
<g transform="translate(768,240) scale(4.12)"><rect width="6" height="6"/></g>
<g transform="translate(72,264) scale(4.12)"><rect width="6" height="6"/></g>
<g transform="translate(120,264) scale(4.12)"><rect width="6" height="6"/></g>
<g transform="translate(144,264) scale(4.12)"><rect width="6" height="6"/></g>
<g transform="translate(168,264) scale(4.12)"><rect width="6" height="6"/></g>
<g transform="translate(288,264) scale(4.12)"><rect width="6" height="6"/></g>
<g transform="translate(336,264) scale(4.12)"><rect width="6" height="6"/></g>
<g transform="translate(432,264) scale(4.12)"><rect width="6" height="6"/></g>
<g transform="translate(480,264) scale(4.12)"><rect width="6" height="6"/></g>
<g transform="translate(504,264) scale(4.12)"><rect width="6" height="6"/></g>
<g transform="translate(528,264) scale(4.12)"><rect width="6" height="6"/></g>
<g transform="translate(552,264) scale(4.12)"><rect width="6" height="6"/></g>
<g transform="translate(576,264) scale(4.12)"><rect width="6" height="6"/></g>
<g transform="translate(600,264) scale(4.12)"><rect width="6" height="6"/></g>
<g transform="translate(672,264) scale(4.12)"><rect width="6" height="6"/></g>
<g transform="translate(696,264) scale(4.12)"><rect width="6" height="6"/></g>
<g transform="translate(744,264) scale(4.12)"><rect width="6" height="6"/></g>
<g transform="translate(768,264) scale(4.12)"><rect width="6" height="6"/></g>
<g transform="translate(792,264) scale(4.12)"><rect width="6" height="6"/></g>
<g transform="translate(816,264) scale(4.12)"><rect width="6" height="6"/></g>
<g transform="translate(48,288) scale(4.12)"><rect width="6" height="6"/></g>
<g transform="translate(96,288) scale(4.12)"><rect width="6" height="6"/></g>
<g transform="translate(168,288) scale(4.12)"><rect width="6" height="6"/></g>
<g transform="translate(192,288) scale(4.12)"><rect width="6" height="6"/></g>
<g transform="translate(216,288) scale(4.12)"><rect width="6" height="6"/></g>
<g transform="translate(240,288) scale(4.12)"><rect width="6" height="6"/></g>
<g transform="translate(264,288) scale(4.12)"><rect width="6" height="6"/></g>
<g transform="translate(288,288) scale(4.12)"><rect width="6" height="6"/></g>
<g transform="translate(312,288) scale(4.12)"><rect width="6" height="6"/></g>
<g transform="translate(336,288) scale(4.12)"><rect width="6" height="6"/></g>
<g transform="translate(408,288) scale(4.12)"><rect width="6" height="6"/></g>
<g transform="translate(432,288) scale(4.12)"><rect width="6" height="6"/></g>
<g transform="translate(480,288) scale(4.12)"><rect width="6" height="6"/></g>
<g transform="translate(528,288) scale(4.12)"><rect width="6" height="6"/></g>
<g transform="translate(552,288) scale(4.12)"><rect width="6" height="6"/></g>
<g transform="translate(648,288) scale(4.12)"><rect width="6" height="6"/></g>
<g transform="translate(720,288) scale(4.12)"><rect width="6" height="6"/></g>
<g transform="translate(768,288) scale(4.12)"><rect width="6" height="6"/></g>
<g transform="translate(792,288) scale(4.12)"><rect width="6" height="6"/></g>
<g transform="translate(120,312) scale(4.12)"><rect width="6" height="6"/></g>
<g transform="translate(168,312) scale(4.12)"><rect width="6" height="6"/></g>
<g transform="translate(216,312) scale(4.12)"><rect width="6" height="6"/></g>
<g transform="translate(264,312) scale(4.12)"><rect width="6" height="6"/></g>
<g transform="translate(312,312) scale(4.12)"><rect width="6" height="6"/></g>
<g transform="translate(384,312) scale(4.12)"><rect width="6" height="6"/></g>
<g transform="translate(408,312) scale(4.12)"><rect width="6" height="6"/></g>
<g transform="translate(432,312) scale(4.12)"><rect width="6" height="6"/></g>
<g transform="translate(504,312) scale(4.12)"><rect width="6" height="6"/></g>
<g transform="translate(552,312) scale(4.12)"><rect width="6" height="6"/></g>
<g transform="translate(576,312) scale(4.12)"><rect width="6" height="6"/></g>
<g transform="translate(624,312) scale(4.12)"><rect width="6" height="6"/></g>
<g transform="translate(672,312) scale(4.12)"><rect width="6" height="6"/></g>
<g transform="translate(720,312) scale(4.12)"><rect width="6" height="6"/></g>
<g transform="translate(744,312) scale(4.12)"><rect width="6" height="6"/></g>
<g transform="translate(768,312) scale(4.12)"><rect width="6" height="6"/></g>
<g transform="translate(792,312) scale(4.12)"><rect width="6" height="6"/></g>
<g transform="translate(816,312) scale(4.12)"><rect width="6" height="6"/></g>
<g transform="translate(48,336) scale(4.12)"><rect width="6" height="6"/></g>
<g transform="translate(120,336) scale(4.12)"><rect width="6" height="6"/></g>
<g transform="translate(168,336) scale(4.12)"><rect width="6" height="6"/></g>
<g transform="translate(192,336) scale(4.12)"><rect width="6" height="6"/></g>
<g transform="translate(216,336) scale(4.12)"><rect width="6" height="6"/></g>
<g transform="translate(264,336) scale(4.12)"><rect width="6" height="6"/></g>
<g transform="translate(312,336) scale(4.12)"><rect width="6" height="6"/></g>
<g transform="translate(336,336) scale(4.12)"><rect width="6" height="6"/></g>
<g transform="translate(408,336) scale(4.12)"><rect width="6" height="6"/></g>
<g transform="translate(480,336) scale(4.12)"><rect width="6" height="6"/></g>
<g transform="translate(552,336) scale(4.12)"><rect width="6" height="6"/></g>
<g transform="translate(648,336) scale(4.12)"><rect width="6" height="6"/></g>
<g transform="translate(720,336) scale(4.12)"><rect width="6" height="6"/></g>
<g transform="translate(744,336) scale(4.12)"><rect width="6" height="6"/></g>
<g transform="translate(792,336) scale(4.12)"><rect width="6" height="6"/></g>
<g transform="translate(816,336) scale(4.12)"><rect width="6" height="6"/></g>
<g transform="translate(48,360) scale(4.12)"><rect width="6" height="6"/></g>
<g transform="translate(96,360) scale(4.12)"><rect width="6" height="6"/></g>
<g transform="translate(144,360) scale(4.12)"><rect width="6" height="6"/></g>
<g transform="translate(216,360) scale(4.12)"><rect width="6" height="6"/></g>
<g transform="translate(240,360) scale(4.12)"><rect width="6" height="6"/></g>
<g transform="translate(264,360) scale(4.12)"><rect width="6" height="6"/></g>
<g transform="translate(288,360) scale(4.12)"><rect width="6" height="6"/></g>
<g transform="translate(312,360) scale(4.12)"><rect width="6" height="6"/></g>
<g transform="translate(336,360) scale(4.12)"><rect width="6" height="6"/></g>
<g transform="translate(384,360) scale(4.12)"><rect width="6" height="6"/></g>
<g transform="translate(408,360) scale(4.12)"><rect width="6" height="6"/></g>
<g transform="translate(432,360) scale(4.12)"><rect width="6" height="6"/></g>
<g transform="translate(456,360) scale(4.12)"><rect width="6" height="6"/></g>
<g transform="translate(528,360) scale(4.12)"><rect width="6" height="6"/></g>
<g transform="translate(552,360) scale(4.12)"><rect width="6" height="6"/></g>
<g transform="translate(576,360) scale(4.12)"><rect width="6" height="6"/></g>
<g transform="translate(600,360) scale(4.12)"><rect width="6" height="6"/></g>
<g transform="translate(672,360) scale(4.12)"><rect width="6" height="6"/></g>
<g transform="translate(792,360) scale(4.12)"><rect width="6" height="6"/></g>
<g transform="translate(816,360) scale(4.12)"><rect width="6" height="6"/></g>
<g transform="translate(48,384) scale(4.12)"><rect width="6" height="6"/></g>
<g transform="translate(72,384) scale(4.12)"><rect width="6" height="6"/></g>
<g transform="translate(96,384) scale(4.12)"><rect width="6" height="6"/></g>
<g transform="translate(192,384) scale(4.12)"><rect width="6" height="6"/></g>
<g transform="translate(216,384) scale(4.12)"><rect width="6" height="6"/></g>
<g transform="translate(240,384) scale(4.12)"><rect width="6" height="6"/></g>
<g transform="translate(312,384) scale(4.12)"><rect width="6" height="6"/></g>
<g transform="translate(384,384) scale(4.12)"><rect width="6" height="6"/></g>
<g transform="translate(456,384) scale(4.12)"><rect width="6" height="6"/></g>
<g transform="translate(504,384) scale(4.12)"><rect width="6" height="6"/></g>
<g transform="translate(552,384) scale(4.12)"><rect width="6" height="6"/></g>
<g transform="translate(576,384) scale(4.12)"><rect width="6" height="6"/></g>
<g transform="translate(648,384) scale(4.12)"><rect width="6" height="6"/></g>
<g transform="translate(672,384) scale(4.12)"><rect width="6" height="6"/></g>
<g transform="translate(696,384) scale(4.12)"><rect width="6" height="6"/></g>
<g transform="translate(720,384) scale(4.12)"><rect width="6" height="6"/></g>
<g transform="translate(744,384) scale(4.12)"><rect width="6" height="6"/></g>
<g transform="translate(768,384) scale(4.12)"><rect width="6" height="6"/></g>
<g transform="translate(792,384) scale(4.12)"><rect width="6" height="6"/></g>
<g transform="translate(72,408) scale(4.12)"><rect width="6" height="6"/></g>
<g transform="translate(96,408) scale(4.12)"><rect width="6" height="6"/></g>
<g transform="translate(144,408) scale(4.12)"><rect width="6" height="6"/></g>
<g transform="translate(168,408) scale(4.12)"><rect width="6" height="6"/></g>
<g transform="translate(216,408) scale(4.12)"><rect width="6" height="6"/></g>
<g transform="translate(264,408) scale(4.12)"><rect width="6" height="6"/></g>
<g transform="translate(336,408) scale(4.12)"><rect width="6" height="6"/></g>
<g transform="translate(432,408) scale(4.12)"><rect width="6" height="6"/></g>
<g transform="translate(504,408) scale(4.12)"><rect width="6" height="6"/></g>
<g transform="translate(528,408) scale(4.12)"><rect width="6" height="6"/></g>
<g transform="translate(552,408) scale(4.12)"><rect width="6" height="6"/></g>
<g transform="translate(600,408) scale(4.12)"><rect width="6" height="6"/></g>
<g transform="translate(648,408) scale(4.12)"><rect width="6" height="6"/></g>
<g transform="translate(672,408) scale(4.12)"><rect width="6" height="6"/></g>
<g transform="translate(696,408) scale(4.12)"><rect width="6" height="6"/></g>
<g transform="translate(744,408) scale(4.12)"><rect width="6" height="6"/></g>
<g transform="translate(768,408) scale(4.12)"><rect width="6" height="6"/></g>
<g transform="translate(72,432) scale(4.12)"><rect width="6" height="6"/></g>
<g transform="translate(120,432) scale(4.12)"><rect width="6" height="6"/></g>
<g transform="translate(168,432) scale(4.12)"><rect width="6" height="6"/></g>
<g transform="translate(192,432) scale(4.12)"><rect width="6" height="6"/></g>
<g transform="translate(264,432) scale(4.12)"><rect width="6" height="6"/></g>
<g transform="translate(288,432) scale(4.12)"><rect width="6" height="6"/></g>
<g transform="translate(432,432) scale(4.12)"><rect width="6" height="6"/></g>
<g transform="translate(456,432) scale(4.12)"><rect width="6" height="6"/></g>
<g transform="translate(504,432) scale(4.12)"><rect width="6" height="6"/></g>
<g transform="translate(576,432) scale(4.12)"><rect width="6" height="6"/></g>
<g transform="translate(600,432) scale(4.12)"><rect width="6" height="6"/></g>
<g transform="translate(624,432) scale(4.12)"><rect width="6" height="6"/></g>
<g transform="translate(648,432) scale(4.12)"><rect width="6" height="6"/></g>
<g transform="translate(696,432) scale(4.12)"><rect width="6" height="6"/></g>
<g transform="translate(720,432) scale(4.12)"><rect width="6" height="6"/></g>
<g transform="translate(744,432) scale(4.12)"><rect width="6" height="6"/></g>
<g transform="translate(768,432) scale(4.12)"><rect width="6" height="6"/></g>
<g transform="translate(816,432) scale(4.12)"><rect width="6" height="6"/></g>
<g transform="translate(72,456) scale(4.12)"><rect width="6" height="6"/></g>
<g transform="translate(120,456) scale(4.12)"><rect width="6" height="6"/></g>
<g transform="translate(144,456) scale(4.12)"><rect width="6" height="6"/></g>
<g transform="translate(168,456) scale(4.12)"><rect width="6" height="6"/></g>
<g transform="translate(240,456) scale(4.12)"><rect width="6" height="6"/></g>
<g transform="translate(288,456) scale(4.12)"><rect width="6" height="6"/></g>
<g transform="translate(336,456) scale(4.12)"><rect width="6" height="6"/></g>
<g transform="translate(360,456) scale(4.12)"><rect width="6" height="6"/></g>
<g transform="translate(384,456) scale(4.12)"><rect width="6" height="6"/></g>
<g transform="translate(432,456) scale(4.12)"><rect width="6" height="6"/></g>
<g transform="translate(456,456) scale(4.12)"><rect width="6" height="6"/></g>
<g transform="translate(504,456) scale(4.12)"><rect width="6" height="6"/></g>
<g transform="translate(528,456) scale(4.12)"><rect width="6" height="6"/></g>
<g transform="translate(600,456) scale(4.12)"><rect width="6" height="6"/></g>
<g transform="translate(672,456) scale(4.12)"><rect width="6" height="6"/></g>
<g transform="translate(696,456) scale(4.12)"><rect width="6" height="6"/></g>
<g transform="translate(744,456) scale(4.12)"><rect width="6" height="6"/></g>
<g transform="translate(768,456) scale(4.12)"><rect width="6" height="6"/></g>
<g transform="translate(792,456) scale(4.12)"><rect width="6" height="6"/></g>
<g transform="translate(72,480) scale(4.12)"><rect width="6" height="6"/></g>
<g transform="translate(96,480) scale(4.12)"><rect width="6" height="6"/></g>
<g transform="translate(120,480) scale(4.12)"><rect width="6" height="6"/></g>
<g transform="translate(144,480) scale(4.12)"><rect width="6" height="6"/></g>
<g transform="translate(168,480) scale(4.12)"><rect width="6" height="6"/></g>
<g transform="translate(192,480) scale(4.12)"><rect width="6" height="6"/></g>
<g transform="translate(240,480) scale(4.12)"><rect width="6" height="6"/></g>
<g transform="translate(312,480) scale(4.12)"><rect width="6" height="6"/></g>
<g transform="translate(408,480) scale(4.12)"><rect width="6" height="6"/></g>
<g transform="translate(456,480) scale(4.12)"><rect width="6" height="6"/></g>
<g transform="translate(576,480) scale(4.12)"><rect width="6" height="6"/></g>
<g transform="translate(672,480) scale(4.12)"><rect width="6" height="6"/></g>
<g transform="translate(696,480) scale(4.12)"><rect width="6" height="6"/></g>
<g transform="translate(720,480) scale(4.12)"><rect width="6" height="6"/></g>
<g transform="translate(768,480) scale(4.12)"><rect width="6" height="6"/></g>
<g transform="translate(792,480) scale(4.12)"><rect width="6" height="6"/></g>
<g transform="translate(48,504) scale(4.12)"><rect width="6" height="6"/></g>
<g transform="translate(72,504) scale(4.12)"><rect width="6" height="6"/></g>
<g transform="translate(120,504) scale(4.12)"><rect width="6" height="6"/></g>
<g transform="translate(168,504) scale(4.12)"><rect width="6" height="6"/></g>
<g transform="translate(216,504) scale(4.12)"><rect width="6" height="6"/></g>
<g transform="translate(240,504) scale(4.12)"><rect width="6" height="6"/></g>
<g transform="translate(288,504) scale(4.12)"><rect width="6" height="6"/></g>
<g transform="translate(312,504) scale(4.12)"><rect width="6" height="6"/></g>
<g transform="translate(360,504) scale(4.12)"><rect width="6" height="6"/></g>
<g transform="translate(408,504) scale(4.12)"><rect width="6" height="6"/></g>
<g transform="translate(432,504) scale(4.12)"><rect width="6" height="6"/></g>
<g transform="translate(456,504) scale(4.12)"><rect width="6" height="6"/></g>
<g transform="translate(480,504) scale(4.12)"><rect width="6" height="6"/></g>
<g transform="translate(504,504) scale(4.12)"><rect width="6" height="6"/></g>
<g transform="translate(528,504) scale(4.12)"><rect width="6" height="6"/></g>
<g transform="translate(600,504) scale(4.12)"><rect width="6" height="6"/></g>
<g transform="translate(624,504) scale(4.12)"><rect width="6" height="6"/></g>
<g transform="translate(648,504) scale(4.12)"><rect width="6" height="6"/></g>
<g transform="translate(696,504) scale(4.12)"><rect width="6" height="6"/></g>
<g transform="translate(720,504) scale(4.12)"><rect width="6" height="6"/></g>
<g transform="translate(744,504) scale(4.12)"><rect width="6" height="6"/></g>
<g transform="translate(768,504) scale(4.12)"><rect width="6" height="6"/></g>
<g transform="translate(792,504) scale(4.12)"><rect width="6" height="6"/></g>
<g transform="translate(816,504) scale(4.12)"><rect width="6" height="6"/></g>
<g transform="translate(48,528) scale(4.12)"><rect width="6" height="6"/></g>
<g transform="translate(96,528) scale(4.12)"><rect width="6" height="6"/></g>
<g transform="translate(120,528) scale(4.12)"><rect width="6" height="6"/></g>
<g transform="translate(192,528) scale(4.12)"><rect width="6" height="6"/></g>
<g transform="translate(288,528) scale(4.12)"><rect width="6" height="6"/></g>
<g transform="translate(312,528) scale(4.12)"><rect width="6" height="6"/></g>
<g transform="translate(408,528) scale(4.12)"><rect width="6" height="6"/></g>
<g transform="translate(432,528) scale(4.12)"><rect width="6" height="6"/></g>
<g transform="translate(504,528) scale(4.12)"><rect width="6" height="6"/></g>
<g transform="translate(528,528) scale(4.12)"><rect width="6" height="6"/></g>
<g transform="translate(552,528) scale(4.12)"><rect width="6" height="6"/></g>
<g transform="translate(576,528) scale(4.12)"><rect width="6" height="6"/></g>
<g transform="translate(624,528) scale(4.12)"><rect width="6" height="6"/></g>
<g transform="translate(648,528) scale(4.12)"><rect width="6" height="6"/></g>
<g transform="translate(720,528) scale(4.12)"><rect width="6" height="6"/></g>
<g transform="translate(744,528) scale(4.12)"><rect width="6" height="6"/></g>
<g transform="translate(48,552) scale(4.12)"><rect width="6" height="6"/></g>
<g transform="translate(96,552) scale(4.12)"><rect width="6" height="6"/></g>
<g transform="translate(120,552) scale(4.12)"><rect width="6" height="6"/></g>
<g transform="translate(144,552) scale(4.12)"><rect width="6" height="6"/></g>
<g transform="translate(168,552) scale(4.12)"><rect width="6" height="6"/></g>
<g transform="translate(216,552) scale(4.12)"><rect width="6" height="6"/></g>
<g transform="translate(264,552) scale(4.12)"><rect width="6" height="6"/></g>
<g transform="translate(288,552) scale(4.12)"><rect width="6" height="6"/></g>
<g transform="translate(360,552) scale(4.12)"><rect width="6" height="6"/></g>
<g transform="translate(408,552) scale(4.12)"><rect width="6" height="6"/></g>
<g transform="translate(480,552) scale(4.12)"><rect width="6" height="6"/></g>
<g transform="translate(600,552) scale(4.12)"><rect width="6" height="6"/></g>
<g transform="translate(672,552) scale(4.12)"><rect width="6" height="6"/></g>
<g transform="translate(744,552) scale(4.12)"><rect width="6" height="6"/></g>
<g transform="translate(816,552) scale(4.12)"><rect width="6" height="6"/></g>
<g transform="translate(48,576) scale(4.12)"><rect width="6" height="6"/></g>
<g transform="translate(96,576) scale(4.12)"><rect width="6" height="6"/></g>
<g transform="translate(168,576) scale(4.12)"><rect width="6" height="6"/></g>
<g transform="translate(192,576) scale(4.12)"><rect width="6" height="6"/></g>
<g transform="translate(240,576) scale(4.12)"><rect width="6" height="6"/></g>
<g transform="translate(264,576) scale(4.12)"><rect width="6" height="6"/></g>
<g transform="translate(312,576) scale(4.12)"><rect width="6" height="6"/></g>
<g transform="translate(408,576) scale(4.12)"><rect width="6" height="6"/></g>
<g transform="translate(432,576) scale(4.12)"><rect width="6" height="6"/></g>
<g transform="translate(480,576) scale(4.12)"><rect width="6" height="6"/></g>
<g transform="translate(528,576) scale(4.12)"><rect width="6" height="6"/></g>
<g transform="translate(552,576) scale(4.12)"><rect width="6" height="6"/></g>
<g transform="translate(744,576) scale(4.12)"><rect width="6" height="6"/></g>
<g transform="translate(792,576) scale(4.12)"><rect width="6" height="6"/></g>
<g transform="translate(48,600) scale(4.12)"><rect width="6" height="6"/></g>
<g transform="translate(120,600) scale(4.12)"><rect width="6" height="6"/></g>
<g transform="translate(144,600) scale(4.12)"><rect width="6" height="6"/></g>
<g transform="translate(168,600) scale(4.12)"><rect width="6" height="6"/></g>
<g transform="translate(216,600) scale(4.12)"><rect width="6" height="6"/></g>
<g transform="translate(240,600) scale(4.12)"><rect width="6" height="6"/></g>
<g transform="translate(312,600) scale(4.12)"><rect width="6" height="6"/></g>
<g transform="translate(336,600) scale(4.12)"><rect width="6" height="6"/></g>
<g transform="translate(408,600) scale(4.12)"><rect width="6" height="6"/></g>
<g transform="translate(480,600) scale(4.12)"><rect width="6" height="6"/></g>
<g transform="translate(552,600) scale(4.12)"><rect width="6" height="6"/></g>
<g transform="translate(576,600) scale(4.12)"><rect width="6" height="6"/></g>
<g transform="translate(624,600) scale(4.12)"><rect width="6" height="6"/></g>
<g transform="translate(648,600) scale(4.12)"><rect width="6" height="6"/></g>
<g transform="translate(672,600) scale(4.12)"><rect width="6" height="6"/></g>
<g transform="translate(744,600) scale(4.12)"><rect width="6" height="6"/></g>
<g transform="translate(768,600) scale(4.12)"><rect width="6" height="6"/></g>
<g transform="translate(48,624) scale(4.12)"><rect width="6" height="6"/></g>
<g transform="translate(144,624) scale(4.12)"><rect width="6" height="6"/></g>
<g transform="translate(192,624) scale(4.12)"><rect width="6" height="6"/></g>
<g transform="translate(240,624) scale(4.12)"><rect width="6" height="6"/></g>
<g transform="translate(264,624) scale(4.12)"><rect width="6" height="6"/></g>
<g transform="translate(288,624) scale(4.12)"><rect width="6" height="6"/></g>
<g transform="translate(312,624) scale(4.12)"><rect width="6" height="6"/></g>
<g transform="translate(336,624) scale(4.12)"><rect width="6" height="6"/></g>
<g transform="translate(408,624) scale(4.12)"><rect width="6" height="6"/></g>
<g transform="translate(456,624) scale(4.12)"><rect width="6" height="6"/></g>
<g transform="translate(576,624) scale(4.12)"><rect width="6" height="6"/></g>
<g transform="translate(600,624) scale(4.12)"><rect width="6" height="6"/></g>
<g transform="translate(624,624) scale(4.12)"><rect width="6" height="6"/></g>
<g transform="translate(648,624) scale(4.12)"><rect width="6" height="6"/></g>
<g transform="translate(672,624) scale(4.12)"><rect width="6" height="6"/></g>
<g transform="translate(696,624) scale(4.12)"><rect width="6" height="6"/></g>
<g transform="translate(720,624) scale(4.12)"><rect width="6" height="6"/></g>
<g transform="translate(744,624) scale(4.12)"><rect width="6" height="6"/></g>
<g transform="translate(792,624) scale(4.12)"><rect width="6" height="6"/></g>
<g transform="translate(816,624) scale(4.12)"><rect width="6" height="6"/></g>
<g transform="translate(240,648) scale(4.12)"><rect width="6" height="6"/></g>
<g transform="translate(360,648) scale(4.12)"><rect width="6" height="6"/></g>
<g transform="translate(384,648) scale(4.12)"><rect width="6" height="6"/></g>
<g transform="translate(432,648) scale(4.12)"><rect width="6" height="6"/></g>
<g transform="translate(504,648) scale(4.12)"><rect width="6" height="6"/></g>
<g transform="translate(552,648) scale(4.12)"><rect width="6" height="6"/></g>
<g transform="translate(600,648) scale(4.12)"><rect width="6" height="6"/></g>
<g transform="translate(624,648) scale(4.12)"><rect width="6" height="6"/></g>
<g transform="translate(720,648) scale(4.12)"><rect width="6" height="6"/></g>
<g transform="translate(768,648) scale(4.12)"><rect width="6" height="6"/></g>
<g transform="translate(792,648) scale(4.12)"><rect width="6" height="6"/></g>
<g transform="translate(816,648) scale(4.12)"><rect width="6" height="6"/></g>
<g transform="translate(288,672) scale(4.12)"><rect width="6" height="6"/></g>
<g transform="translate(312,672) scale(4.12)"><rect width="6" height="6"/></g>
<g transform="translate(336,672) scale(4.12)"><rect width="6" height="6"/></g>
<g transform="translate(360,672) scale(4.12)"><rect width="6" height="6"/></g>
<g transform="translate(384,672) scale(4.12)"><rect width="6" height="6"/></g>
<g transform="translate(408,672) scale(4.12)"><rect width="6" height="6"/></g>
<g transform="translate(432,672) scale(4.12)"><rect width="6" height="6"/></g>
<g transform="translate(480,672) scale(4.12)"><rect width="6" height="6"/></g>
<g transform="translate(528,672) scale(4.12)"><rect width="6" height="6"/></g>
<g transform="translate(552,672) scale(4.12)"><rect width="6" height="6"/></g>
<g transform="translate(600,672) scale(4.12)"><rect width="6" height="6"/></g>
<g transform="translate(624,672) scale(4.12)"><rect width="6" height="6"/></g>
<g transform="translate(672,672) scale(4.12)"><rect width="6" height="6"/></g>
<g transform="translate(720,672) scale(4.12)"><rect width="6" height="6"/></g>
<g transform="translate(768,672) scale(4.12)"><rect width="6" height="6"/></g>
<g transform="translate(792,672) scale(4.12)"><rect width="6" height="6"/></g>
<g transform="translate(240,696) scale(4.12)"><rect width="6" height="6"/></g>
<g transform="translate(288,696) scale(4.12)"><rect width="6" height="6"/></g>
<g transform="translate(312,696) scale(4.12)"><rect width="6" height="6"/></g>
<g transform="translate(336,696) scale(4.12)"><rect width="6" height="6"/></g>
<g transform="translate(432,696) scale(4.12)"><rect width="6" height="6"/></g>
<g transform="translate(552,696) scale(4.12)"><rect width="6" height="6"/></g>
<g transform="translate(576,696) scale(4.12)"><rect width="6" height="6"/></g>
<g transform="translate(600,696) scale(4.12)"><rect width="6" height="6"/></g>
<g transform="translate(624,696) scale(4.12)"><rect width="6" height="6"/></g>
<g transform="translate(720,696) scale(4.12)"><rect width="6" height="6"/></g>
<g transform="translate(744,696) scale(4.12)"><rect width="6" height="6"/></g>
<g transform="translate(768,696) scale(4.12)"><rect width="6" height="6"/></g>
<g transform="translate(792,696) scale(4.12)"><rect width="6" height="6"/></g>
<g transform="translate(816,696) scale(4.12)"><rect width="6" height="6"/></g>
<g transform="translate(240,720) scale(4.12)"><rect width="6" height="6"/></g>
<g transform="translate(264,720) scale(4.12)"><rect width="6" height="6"/></g>
<g transform="translate(288,720) scale(4.12)"><rect width="6" height="6"/></g>
<g transform="translate(312,720) scale(4.12)"><rect width="6" height="6"/></g>
<g transform="translate(336,720) scale(4.12)"><rect width="6" height="6"/></g>
<g transform="translate(480,720) scale(4.12)"><rect width="6" height="6"/></g>
<g transform="translate(504,720) scale(4.12)"><rect width="6" height="6"/></g>
<g transform="translate(552,720) scale(4.12)"><rect width="6" height="6"/></g>
<g transform="translate(624,720) scale(4.12)"><rect width="6" height="6"/></g>
<g transform="translate(648,720) scale(4.12)"><rect width="6" height="6"/></g>
<g transform="translate(672,720) scale(4.12)"><rect width="6" height="6"/></g>
<g transform="translate(696,720) scale(4.12)"><rect width="6" height="6"/></g>
<g transform="translate(720,720) scale(4.12)"><rect width="6" height="6"/></g>
<g transform="translate(744,720) scale(4.12)"><rect width="6" height="6"/></g>
<g transform="translate(792,720) scale(4.12)"><rect width="6" height="6"/></g>
<g transform="translate(816,720) scale(4.12)"><rect width="6" height="6"/></g>
<g transform="translate(240,744) scale(4.12)"><rect width="6" height="6"/></g>
<g transform="translate(288,744) scale(4.12)"><rect width="6" height="6"/></g>
<g transform="translate(312,744) scale(4.12)"><rect width="6" height="6"/></g>
<g transform="translate(336,744) scale(4.12)"><rect width="6" height="6"/></g>
<g transform="translate(360,744) scale(4.12)"><rect width="6" height="6"/></g>
<g transform="translate(384,744) scale(4.12)"><rect width="6" height="6"/></g>
<g transform="translate(408,744) scale(4.12)"><rect width="6" height="6"/></g>
<g transform="translate(432,744) scale(4.12)"><rect width="6" height="6"/></g>
<g transform="translate(528,744) scale(4.12)"><rect width="6" height="6"/></g>
<g transform="translate(576,744) scale(4.12)"><rect width="6" height="6"/></g>
<g transform="translate(600,744) scale(4.12)"><rect width="6" height="6"/></g>
<g transform="translate(624,744) scale(4.12)"><rect width="6" height="6"/></g>
<g transform="translate(648,744) scale(4.12)"><rect width="6" height="6"/></g>
<g transform="translate(720,744) scale(4.12)"><rect width="6" height="6"/></g>
<g transform="translate(768,744) scale(4.12)"><rect width="6" height="6"/></g>
<g transform="translate(816,744) scale(4.12)"><rect width="6" height="6"/></g>
<g transform="translate(240,768) scale(4.12)"><rect width="6" height="6"/></g>
<g transform="translate(264,768) scale(4.12)"><rect width="6" height="6"/></g>
<g transform="translate(288,768) scale(4.12)"><rect width="6" height="6"/></g>
<g transform="translate(336,768) scale(4.12)"><rect width="6" height="6"/></g>
<g transform="translate(360,768) scale(4.12)"><rect width="6" height="6"/></g>
<g transform="translate(384,768) scale(4.12)"><rect width="6" height="6"/></g>
<g transform="translate(456,768) scale(4.12)"><rect width="6" height="6"/></g>
<g transform="translate(480,768) scale(4.12)"><rect width="6" height="6"/></g>
<g transform="translate(504,768) scale(4.12)"><rect width="6" height="6"/></g>
<g transform="translate(576,768) scale(4.12)"><rect width="6" height="6"/></g>
<g transform="translate(624,768) scale(4.12)"><rect width="6" height="6"/></g>
<g transform="translate(672,768) scale(4.12)"><rect width="6" height="6"/></g>
<g transform="translate(696,768) scale(4.12)"><rect width="6" height="6"/></g>
<g transform="translate(744,768) scale(4.12)"><rect width="6" height="6"/></g>
<g transform="translate(288,792) scale(4.12)"><rect width="6" height="6"/></g>
<g transform="translate(336,792) scale(4.12)"><rect width="6" height="6"/></g>
<g transform="translate(360,792) scale(4.12)"><rect width="6" height="6"/></g>
<g transform="translate(432,792) scale(4.12)"><rect width="6" height="6"/></g>
<g transform="translate(480,792) scale(4.12)"><rect width="6" height="6"/></g>
<g transform="translate(504,792) scale(4.12)"><rect width="6" height="6"/></g>
<g transform="translate(528,792) scale(4.12)"><rect width="6" height="6"/></g>
<g transform="translate(552,792) scale(4.12)"><rect width="6" height="6"/></g>
<g transform="translate(720,792) scale(4.12)"><rect width="6" height="6"/></g>
<g transform="translate(744,792) scale(4.12)"><rect width="6" height="6"/></g>
<g transform="translate(768,792) scale(4.12)"><rect width="6" height="6"/></g>
<g transform="translate(240,816) scale(4.12)"><rect width="6" height="6"/></g>
<g transform="translate(264,816) scale(4.12)"><rect width="6" height="6"/></g>
<g transform="translate(288,816) scale(4.12)"><rect width="6" height="6"/></g>
<g transform="translate(312,816) scale(4.12)"><rect width="6" height="6"/></g>
<g transform="translate(384,816) scale(4.12)"><rect width="6" height="6"/></g>
<g transform="translate(456,816) scale(4.12)"><rect width="6" height="6"/></g>
<g transform="translate(504,816) scale(4.12)"><rect width="6" height="6"/></g>
<g transform="translate(576,816) scale(4.12)"><rect width="6" height="6"/></g>
<g transform="translate(600,816) scale(4.12)"><rect width="6" height="6"/></g>
<g transform="translate(624,816) scale(4.12)"><rect width="6" height="6"/></g>
<g transform="translate(648,816) scale(4.12)"><rect width="6" height="6"/></g>
<g transform="translate(672,816) scale(4.12)"><rect width="6" height="6"/></g>
<g transform="translate(696,816) scale(4.12)"><rect width="6" height="6"/></g>
<g transform="translate(792,816) scale(4.12)"><rect width="6" height="6"/></g>
<g transform="translate(48,48)"><g transform="scale(12)"><path d="M4.5,14h5.1C12,14,14,12,14,9.6V4.5C14,2,12,0,9.5,0H4.4C2,0,0,2,0,4.4v5.1C0,12,2,14,4.5,14z M12,4.8v4.4 c0,1.5-1.3,2.8-2.8,2.8H4.8C3.2,12,2,10.8,2,9.2V4.8C2,3.3,3.3,2,4.8,2h4.4C10.8,2,12,3.2,12,4.8z"/></g></g>
<g transform="translate(672,48)"><g transform="scale(12)"><path d="M4.5,14h5.1C12,14,14,12,14,9.6V4.5C14,2,12,0,9.5,0H4.4C2,0,0,2,0,4.4v5.1C0,12,2,14,4.5,14z M12,4.8v4.4 c0,1.5-1.3,2.8-2.8,2.8H4.8C3.2,12,2,10.8,2,9.2V4.8C2,3.3,3.3,2,4.8,2h4.4C10.8,2,12,3.2,12,4.8z"/></g></g>
<g transform="translate(48,672)"><g transform="scale(12)"><path d="M4.5,14h5.1C12,14,14,12,14,9.6V4.5C14,2,12,0,9.5,0H4.4C2,0,0,2,0,4.4v5.1C0,12,2,14,4.5,14z M12,4.8v4.4 c0,1.5-1.3,2.8-2.8,2.8H4.8C3.2,12,2,10.8,2,9.2V4.8C2,3.3,3.3,2,4.8,2h4.4C10.8,2,12,3.2,12,4.8z"/></g></g>
<g transform="translate(96,96)"><g transform="scale(12)"><path d="M6,1.7v2.7C6,5.2,5.2,6,4.3,6H1.7C0.7,6,0,5.3,0,4.3V1.7C0,0.8,0.8,0,1.7,0h2.7C5.3,0,6,0.7,6,1.7z"/></g></g>
<g transform="translate(720,96)"><g transform="scale(12)"><path d="M6,1.7v2.7C6,5.2,5.2,6,4.3,6H1.7C0.7,6,0,5.3,0,4.3V1.7C0,0.8,0.8,0,1.7,0h2.7C5.3,0,6,0.7,6,1.7z"/></g></g>
<g transform="translate(96,720)"><g transform="scale(12)"><path d="M6,1.7v2.7C6,5.2,5.2,6,4.3,6H1.7C0.7,6,0,5.3,0,4.3V1.7C0,0.8,0.8,0,1.7,0h2.7C5.3,0,6,0.7,6,1.7z"/></g></g>
</g></svg>
