<?xml version="1.0" encoding="utf-8"?>

<!DOCTYPE svg PUBLIC "-//W3C//DTD SVG 1.1//EN" "http://www.w3.org/Graphics/SVG/1.1/DTD/svg11.dtd">
<!-- Uploaded to: SVG Repo, www.svgrepo.com, Generator: SVG Repo Mixer Tools -->
<svg fill="#000000" height="800px" width="800px" version="1.1" id="Layer_1" xmlns="http://www.w3.org/2000/svg" xmlns:xlink="http://www.w3.org/1999/xlink" 
	 viewBox="0 0 100 100" enable-background="new 0 0 100 100" xml:space="preserve">
<path d="M25.5,4c0-1.3-1-2.3-2.3-2.3c-1.3,0-2.3,1-2.3,2.3v5.1h4.7V4z M23.2,34.3c6.3,0,11.5-5.1,11.5-11.5
	c0-6.3-5.1-11.5-11.5-11.5c-6.3,0-11.5,5.1-11.5,11.5C11.7,29.2,16.8,34.3,23.2,34.3z M38.9,11.7c0.9-0.9,0.9-2.4,0-3.3
	c-0.9-0.9-2.4-0.9-3.3,0L32,12.1l3.3,3.3L38.9,11.7z M32,33.6l3.6,3.6c0.9,0.9,2.4,0.9,3.3,0c0.9-0.9,0.9-2.4,0-3.3l-3.6-3.6
	L32,33.6z M36.8,25.2h5.1c1.3,0,2.3-1,2.3-2.3c0-1.3-1-2.3-2.3-2.3h-5.1V25.2z M11,15.4l3.3-3.3l-3.6-3.6c-0.9-0.9-2.4-0.9-3.3,0
	c-0.9,0.9-0.9,2.4,0,3.3L11,15.4z M20.8,41.7c0,1.3,1,2.3,2.3,2.3c1.3,0,2.3-1,2.3-2.3v-5.1h-4.7V41.7z M4.3,25.2h5.1v-4.7H4.3
	c-1.3,0-2.3,1-2.3,2.3C2,24.1,3,25.2,4.3,25.2z M7.4,33.9c-0.9,0.9-0.9,2.4,0,3.3c0.9,0.9,2.4,0.9,3.3,0l3.6-3.6L11,30.3L7.4,33.9z
	 M84.4,94.3c-10.4,0-13.6-6-22.4-6c-1,0-2.1,0.1-3.2,0.2l11.5-29.3c1.6-0.2,3.5,0.1,5.5,0.9c2.9,1.1,5,2.9,5.7,4.6
	c0.2,0.6,0.9,0.8,1.5,0.6c1.7-0.8,4.5-0.7,7.3,0.4c2.1,0.8,3.9,2,4.9,3.3c0.6,0.7,1.8,0.5,2-0.4c3.7-14.9-4.2-30.6-18.9-36.3
	C63.4,26.5,47,32.9,39.8,46.5c-0.4,0.8,0.3,1.8,1.2,1.7c1.6-0.3,3.7,0,5.8,0.8c2.8,1.1,4.9,2.9,5.6,4.6c0.2,0.6,0.9,0.8,1.5,0.6
	c1.7-0.8,4.5-0.7,7.3,0.4c2,0.8,3.7,1.9,4.7,3.1L53.4,89.4c-2,0.4-4,0.9-6.3,1.4v-7.7c0-1.1-0.4-2.1-1.2-2.8l3.5-3.5
	c0.8-0.8,0.8-2,0-2.8s-2-0.8-2.8,0L35.8,85H18.7c-2.8,0-5.1,2.3-5.1,5.1V94C6.3,94.9,2,96.5,2,98.3h96C98,98.3,94.8,94.3,84.4,94.3z
	 M65,50.1c-0.2,0.4-0.5,0.6-0.9,0.6c-0.1,0-0.2,0-0.4-0.1c-0.5-0.2-0.8-0.8-0.6-1.3c0.1-0.4,3-7.9,10.5-11.4
	c-12.6-1.7-20.3,7-20.6,7.4c-0.2,0.2-0.5,0.3-0.8,0.3c-0.2,0-0.5-0.1-0.7-0.2c-0.4-0.4-0.5-1-0.1-1.4c0.1-0.1,10.2-11.6,26.1-7.3
	l0,0c0,0,0.1,0,0.1,0.1c0,0,0.1,0,0.1,0c0,0,0,0,0,0C92,45.5,90.1,60.8,90.1,60.9c-0.1,0.5-0.5,0.9-1,0.9c0,0-0.1,0-0.1,0
	c-0.5-0.1-0.9-0.6-0.9-1.1c0.1-0.5,1.4-12-8.4-20.1c2.5,7.9-1.3,15.2-1.5,15.6c-0.2,0.3-0.5,0.5-0.9,0.5c-0.2,0-0.3,0-0.5-0.1
	c-0.5-0.3-0.7-0.9-0.4-1.4c0-0.1,4.4-8.5,0.4-16.4C68.3,41.4,65,50,65,50.1z M43.2,91.7c-4.5,0.9-9.5,1.6-15.3,1.6
	c-3.8,0-7.2,0.1-10.3,0.4v-3.5c0-0.6,0.5-1.1,1.1-1.1h18.7l0.6-0.6c0,0,0,0,0,0l5.2-5.2V91.7z"/>
</svg>