<?xml version="1.0" ?>
<!-- Uploaded to: SVG Repo, www.svgrepo.com, Generator: SVG Repo Mixer Tools -->
<svg width="800px" height="800px" viewBox="0 0 64 64" xmlns="http://www.w3.org/2000/svg">
<g id="a"/>
<g id="b"/>
<g id="c"/>
<g id="d"/>
<g id="e">
<path d="M38.49,55.77v1.38c0,1.03,.83,1.85,1.85,1.85h4.71c1.03,0,1.85-.83,1.85-1.85v-1.38l-4.29-1.9-4.13,1.9Zm-21.39,0v1.38c0,1.03,.83,1.85,1.85,1.85h4.71c1.03,0,1.85-.83,1.85-1.85v-1.38l-3.7-1.95-4.72,1.95Z" fill="#9fa9b6" fill-rule="evenodd"/>
<path d="M44.47,55.77v1.38c0,1.03-.83,1.85-1.85,1.85h2.43c1.03,0,1.85-.83,1.85-1.85v-1.38h-2.43Zm-21.39,0v1.38c0,1.03-.83,1.85-1.85,1.85h2.43c1.03,0,1.85-.83,1.85-1.85v-1.38h-2.43Z" fill="#8996a8" fill-rule="evenodd"/>
<rect fill="#8fd7f8" height="50.77" rx="1.85" ry="1.85" width="37.77" x="13.12" y="5"/>
<rect fill="#f0f3f5" height="9.9" width="22.85" x="17.1" y="41.88"/>
<rect fill="#f0f3f5" height="28.13" width="22.85" x="17.1" y="8.98"/>
<path d="M45.41,27.58c1.08,0,1.95,.87,1.95,1.95v4.46c0,1.08-.87,1.95-1.95,1.95s-1.95-.87-1.95-1.95v-4.46c0-1.08,.87-1.95,1.95-1.95Z" fill="#8996a8" fill-rule="evenodd"/>
<path d="M31.77,23.05v6.43c-.95,.04-1.7,.81-1.7,1.77v4.08c0,.98,.79,1.78,1.78,1.78h2.92c.98,0,1.78-.79,1.78-1.78v-4.08c0-.96-.75-1.73-1.7-1.77v-6.43h-3.07Zm-9.56,0v6.43c-.95,.04-1.7,.81-1.7,1.77v4.08c0,.98,.79,1.78,1.78,1.78h2.92c.98,0,1.78-.79,1.78-1.78v-4.08c0-.96-.75-1.73-1.7-1.77v-6.43h-3.07Z" fill="#b8f5d2" fill-rule="evenodd"/>
<rect fill="#e8a3c1" height="6.24" rx=".94" ry=".94" width="3.04" x="33.11" y="13.16"/>
<rect fill="#8fd7f8" height="6.24" rx=".94" ry=".94" width="3.04" x="27" y="13.16"/>
<rect fill="#f5e680" height="6.24" rx=".94" ry=".94" width="3.04" x="20.89" y="13.16"/>
<path d="M46.63,5c1.03,0,1.86,.83,1.86,1.85V53.91c0,1.03-.83,1.86-1.86,1.86h2.4c1.03,0,1.85-.83,1.85-1.86V6.85c0-1.03-.83-1.85-1.85-1.85h-2.4Z" fill="#75cdf8" fill-rule="evenodd"/>
<rect fill="#e4ecf0" height="9.9" width="2.37" x="37.57" y="41.88"/>
<rect fill="#e4ecf0" height="28.13" width="2.37" x="37.57" y="8.98"/>
<path d="M32.69,23.05v6.43c.95,.04,1.7,.81,1.7,1.77v4.08c0,.98-.79,1.78-1.78,1.78h2.15c.98,0,1.78-.79,1.78-1.78v-4.08c0-.96-.75-1.73-1.7-1.77v-6.43h-2.15Zm-9.56,0v6.43c.95,.04,1.7,.81,1.7,1.77v4.08c0,.98-.79,1.78-1.78,1.78h2.15c.98,0,1.78-.79,1.78-1.78v-4.08c0-.96-.75-1.73-1.7-1.77v-6.43h-2.15Z" fill="#a1f3c0" fill-rule="evenodd"/>
<path d="M34.05,13.16s-.06,0-.1,0c.47,.05,.84,.45,.84,.93v4.37c0,.49-.37,.89-.84,.93h1.26c.52,0,.94-.42,.94-.94v-4.37c0-.52-.42-.94-.94-.94h-1.17Z" fill="#e38fb6" fill-rule="evenodd"/>
<path d="M27.94,13.16s-.06,0-.1,0c.47,.05,.84,.45,.84,.93v4.37c0,.49-.37,.89-.84,.93h1.26c.52,0,.94-.42,.94-.94v-4.37c0-.52-.42-.94-.94-.94h-1.17Z" fill="#75cdf8" fill-rule="evenodd"/>
<path d="M21.82,13.16s-.06,0-.09,0c.47,.05,.84,.45,.84,.93v4.37c0,.49-.37,.89-.84,.93h1.26c.52,0,.94-.42,.94-.94v-4.37c0-.52-.42-.94-.94-.94h-1.17Z" fill="#f2d865" fill-rule="evenodd"/>
<path d="M50.88,4H13.12c-.55,0-1,.45-1,1V55.77c0,.55,.45,1,1,1h2.98v.38c0,1.57,1.28,2.85,2.85,2.85h4.7c1.57,0,2.85-1.28,2.85-2.85v-.38h10.98v.38c0,1.57,1.28,2.85,2.85,2.85h4.7c1.57,0,2.85-1.28,2.85-2.85v-.38h2.98c.55,0,1-.45,1-1V5c0-.55-.45-1-1-1ZM24.51,57.15c0,.47-.38,.85-.85,.85h-4.7c-.48,0-.85-.38-.85-.85v-.38h6.41v.38Zm21.39,0c0,.48-.38,.85-.85,.85h-4.7c-.47,0-.85-.38-.85-.85v-.38h6.41v.38Zm3.98-2.38H14.12V6H49.88V54.77Z"/>
<path d="M17.1,52.79h22.85c.55,0,1-.45,1-1v-9.9c0-.55-.45-1-1-1H17.1c-.55,0-1,.45-1,1v9.9c0,.55,.45,1,1,1Zm1-9.9h20.85v7.9H18.1v-7.9Z"/>
<path d="M17.1,38.11h22.85c.55,0,1-.45,1-1V8.98c0-.55-.45-1-1-1H17.1c-.55,0-1,.45-1,1v28.13c0,.55,.45,1,1,1Zm5.18-2c-.44,0-.78-.34-.78-.78v-4.08c0-.42,.33-.76,.74-.77,.54-.02,.96-.46,.96-1v-5.43h1.07v5.43c0,.54,.42,.98,.96,1,.42,.02,.74,.36,.74,.77v4.08c0,.43-.35,.78-.78,.78h-2.92Zm9.56,0c-.43,0-.78-.35-.78-.78v-4.08c0-.42,.33-.76,.74-.77,.54-.02,.96-.46,.96-1v-5.43h1.07v5.43c0,.54,.42,.98,.96,1,.42,.02,.74,.36,.74,.77v4.08c0,.44-.34,.78-.78,.78h-2.92Zm5.54,0c.08-.25,.16-.5,.16-.78v-4.08c0-1.15-.7-2.14-1.7-2.56v-4.84c.29-.17,.52-.44,.52-.8,0-.55-.45-1-1-1h-4.1c-.55,0-1,.45-1,1,0,.36,.23,.62,.52,.8v4.84c-1.01,.42-1.7,1.41-1.7,2.56v4.08c0,.28,.08,.53,.16,.78h-1.4c.08-.25,.16-.5,.16-.78v-4.08c0-1.15-.7-2.14-1.7-2.56v-4.84c.29-.17,.52-.44,.52-.8,0-.55-.45-1-1-1h-4.1c-.55,0-1,.45-1,1,0,.36,.23,.63,.52,.8v4.84c-1.01,.42-1.7,1.41-1.7,2.56v4.08c0,.28,.08,.53,.16,.78h-1.56v-15.71h20.85v15.71h-1.56Zm-15.49-17.71v-4.24l1.04-.06,.06,4.3h-1.1Zm6.11,0v-4.24l1.04-.06,.06,4.3h-1.1Zm6.11,0v-4.24l1.04-.06,.06,4.3h-1.1Zm4.83-8.42v8.42h-1.79v-4.3c0-1.07-.87-1.94-1.94-1.94h-1.17c-1.07,0-1.94,.87-1.94,1.94v4.3h-1.07v-4.3c0-1.07-.87-1.94-1.94-1.94h-1.17c-1.07,0-1.94,.87-1.94,1.94v4.3h-1.07v-4.3c0-1.07-.87-1.94-1.94-1.94h-1.17c-1.07,0-1.94,.87-1.94,1.94v4.3h-1.79V9.98h20.85Z"/>
<path d="M44.2,14.92c.4-.4,.4-1.06,0-1.46-.4-.4-1.06-.4-1.46,0s-.4,1.06,0,1.46c.4,.4,1.06,.4,1.46,0Z"/>
<path d="M44.2,10.74c.4-.4,.4-1.06,0-1.46-.4-.4-1.06-.4-1.46,0s-.4,1.06,0,1.46c.4,.4,1.06,.4,1.46,0Z"/>
<path d="M44.2,23.27c.4-.4,.4-1.06,0-1.46-.4-.4-1.06-.4-1.46,0-.4,.4-.4,1.06,0,1.46,.4,.4,1.06,.4,1.46,0Z"/>
<path d="M44.2,19.1c.4-.4,.4-1.06,0-1.46-.4-.4-1.06-.4-1.46,0-.4,.4-.4,1.06,0,1.46,.4,.4,1.06,.4,1.46,0Z"/>
<path d="M48.09,14.92c.4-.4,.4-1.06,0-1.46-.4-.4-1.06-.4-1.46,0s-.4,1.06,0,1.46c.4,.4,1.06,.4,1.46,0Z"/>
<path d="M48.09,10.74c.4-.4,.4-1.06,0-1.46-.4-.4-1.06-.4-1.46,0s-.4,1.06,0,1.46c.4,.4,1.06,.4,1.46,0Z"/>
<path d="M48.09,23.27c.4-.4,.4-1.06,0-1.46-.4-.4-1.06-.4-1.46,0-.4,.4-.4,1.06,0,1.46,.4,.4,1.06,.4,1.46,0Z"/>
<path d="M48.09,19.1c.4-.4,.4-1.06,0-1.46-.4-.4-1.06-.4-1.46,0-.4,.4-.4,1.06,0,1.46,.4,.4,1.06,.4,1.46,0Z"/>
<path d="M42.47,29.52v4.46c0,1.62,1.32,2.95,2.95,2.95s2.95-1.32,2.95-2.95v-4.46c0-1.62-1.32-2.95-2.95-2.95s-2.95,1.32-2.95,2.95Zm2,0c0-.52,.42-.95,.95-.95s.95,.42,.95,.95v4.46c0,.52-.42,.95-.95,.95s-.95-.42-.95-.95v-4.46Z"/>
<path d="M31.99,45.84h-6.94c-.55,0-1,.45-1,1s.45,1,1,1h6.94c.55,0,1-.45,1-1s-.45-1-1-1Z"/>
</g>
<g id="f"/>
<g id="g"/>
<g id="h"/>
<g id="i"/>
<g id="j"/>
<g id="k"/>
<g id="l"/>
<g id="m"/>
<g id="n"/>
<g id="o"/>
<g id="p"/>
<g id="q"/>
<g id="r"/>
<g id="s"/>
<g id="t"/>
<g id="u"/>
<g id="v"/>
<g id="w"/>
<g id="x"/>
<g id="y"/>
<g id="a`"/>
<g id="aa"/>
<g id="ab"/>
<g id="ac"/>
<g id="ad"/>
<g id="ae"/>
<g id="af"/>
<g id="ag"/>
<g id="ah"/>
<g id="ai"/>
<g id="aj"/>
<g id="ak"/>
<g id="al"/>
<g id="am"/>
<g id="an"/>
<g id="ao"/>
<g id="ap"/>
<g id="aq"/>
<g id="ar"/>
<g id="as"/>
<g id="at"/>
<g id="au"/>
<g id="av"/>
<g id="aw"/>
<g id="ax"/>
</svg>