<?xml version="1.0" ?>
<!-- Uploaded to: SVG Repo, www.svgrepo.com, Generator: SVG Repo Mixer Tools -->
<svg width="800px" height="800px" viewBox="0 0 64 64" xmlns="http://www.w3.org/2000/svg">
<defs>
<style>.cls-1{fill:none;stroke:#000000;stroke-linejoin:round;stroke-width:2px;}</style>
</defs>
<title/>
<g data-name="Layer 31" id="Layer_31">
<rect class="cls-1" height="56" width="44" x="10" y="2"/>
<polyline class="cls-1" points="12 58 12 62 18 62 18 58"/>
<polyline class="cls-1" points="46 58 46 62 52 62 52 58"/>
<rect class="cls-1" height="16" width="8" x="42" y="6"/>
<line class="cls-1" x1="41" x2="43" y1="26" y2="26"/>
<line class="cls-1" x1="45" x2="47" y1="26" y2="26"/>
<line class="cls-1" x1="41" x2="43" y1="30" y2="30"/>
<line class="cls-1" x1="45" x2="47" y1="30" y2="30"/>
<line class="cls-1" x1="41" x2="43" y1="34" y2="34"/>
<line class="cls-1" x1="45" x2="47" y1="34" y2="34"/>
<line class="cls-1" x1="49" x2="51" y1="26" y2="26"/>
<line class="cls-1" x1="49" x2="51" y1="30" y2="30"/>
<line class="cls-1" x1="49" x2="51" y1="34" y2="34"/>
<line class="cls-1" x1="10" x2="54" y1="38" y2="38"/>
<line class="cls-1" x1="38" x2="38" y1="2" y2="58"/>
<rect class="cls-1" height="6" width="6" x="44" y="48"/>
<rect class="cls-1" height="8" width="20" x="14" y="44"/>
<rect class="cls-1" height="28" width="20" x="14" y="6"/>
<line class="cls-1" x1="14" x2="34" y1="18" y2="18"/>
<line class="cls-1" x1="14" x2="34" y1="30" y2="30"/>
<polyline class="cls-1" points="18 18 18 12 22 12 22 18"/>
<polyline class="cls-1" points="26 18 26 12 30 12 30 18"/>
<polyline class="cls-1" points="18 30 18 24 22 24 22 30"/>
<polyline class="cls-1" points="26 30 26 24 30 24 30 30"/>
<line class="cls-1" x1="42" x2="50" y1="10" y2="10"/>
<line class="cls-1" x1="42" x2="50" y1="14" y2="14"/>
<line class="cls-1" x1="42" x2="50" y1="18" y2="18"/>
</g>
</svg>