<?xml version="1.0" ?>
<!-- Uploaded to: SVG Repo, www.svgrepo.com, Generator: SVG Repo Mixer Tools -->
<svg fill="#000000" width="800px" height="800px" viewBox="0 0 128 128" xmlns="http://www.w3.org/2000/svg">
<title/>
<g id="Grid">
<path d="M105.67,29.15v-3a4.53,4.53,0,1,0,0-9H21.33a4.53,4.53,0,1,0,0,9v3a7.53,7.53,0,1,1,0-15h84.34a7.53,7.53,0,1,1,0,15.05Z"/>
<path d="M28.1,113.5c-7.47,0-13.55-7.43-13.55-16.56S20.63,80.37,28.1,80.37,41.65,87.8,41.65,96.94,35.58,113.5,28.1,113.5Zm0-30.13c-5.81,0-10.55,6.09-10.55,13.57S22.29,110.5,28.1,110.5s10.55-6.08,10.55-13.56S33.92,83.37,28.1,83.37Z"/>
<path d="M28.1,53.25a7.53,7.53,0,0,1-7.52-7.52V27.65a7.53,7.53,0,1,1,15.05,0V45.73A7.54,7.54,0,0,1,28.1,53.25Zm0-30.13a4.53,4.53,0,0,0-4.52,4.53V45.73a4.53,4.53,0,0,0,9.05,0V27.65A4.53,4.53,0,0,0,28.1,23.12Z"/>
<path d="M28.1,83.37a1.5,1.5,0,0,1-1.5-1.5V51.75a1.5,1.5,0,0,1,3,0V81.87A1.5,1.5,0,0,1,28.1,83.37Z"/>
<path d="M64,53.25a7.53,7.53,0,0,1-7.52-7.52V27.65a7.53,7.53,0,1,1,15.05,0V45.73A7.54,7.54,0,0,1,64,53.25Zm0-30.13a4.53,4.53,0,0,0-4.52,4.53V45.73a4.53,4.53,0,0,0,9.05,0V27.65A4.53,4.53,0,0,0,64,23.12Z"/>
<path d="M64,83.37a1.5,1.5,0,0,1-1.5-1.5V51.75a1.5,1.5,0,0,1,3,0V81.87A1.5,1.5,0,0,1,64,83.37Z"/>
<path d="M99.65,107.48A13.56,13.56,0,1,1,113.2,93.93,13.57,13.57,0,0,1,99.65,107.48Zm0-24.11A10.56,10.56,0,1,0,110.2,93.93,10.57,10.57,0,0,0,99.65,83.37Z"/>
<path d="M99.65,53.25a7.54,7.54,0,0,1-7.53-7.52V27.65a7.53,7.53,0,1,1,15,0V45.73A7.53,7.53,0,0,1,99.65,53.25Zm0-30.13a4.54,4.54,0,0,0-4.53,4.53V45.73a4.53,4.53,0,0,0,9,0V27.65A4.52,4.52,0,0,0,99.65,23.12Z"/>
<path d="M99.65,83.37a1.5,1.5,0,0,1-1.5-1.5V51.75a1.5,1.5,0,0,1,3,0V81.87A1.5,1.5,0,0,1,99.65,83.37Z"/>
<path d="M64,114.45a107.83,107.83,0,0,1-11.37-.6,7.52,7.52,0,0,1-5.26-2.75,4.69,4.69,0,0,1-1-3.67l3.45-21.84a5.71,5.71,0,0,1,6.25-4.68,76,76,0,0,0,15.82,0,5.71,5.71,0,0,1,6.25,4.67l3.46,21.86a4.76,4.76,0,0,1-1,3.66,7.56,7.56,0,0,1-5.26,2.75A108.16,108.16,0,0,1,64,114.45ZM55.49,83.88a2.68,2.68,0,0,0-2.68,2.2l-3.46,21.83a1.8,1.8,0,0,0,.4,1.37,4.63,4.63,0,0,0,3.19,1.59,106.2,106.2,0,0,0,22.12,0h0a4.63,4.63,0,0,0,3.19-1.59,1.79,1.79,0,0,0,.41-1.35L75.2,86.06a2.7,2.7,0,0,0-3-2.17,77.88,77.88,0,0,1-16.44,0Z"/>
<rect height="3" width="24.1" x="33.38" y="26.15"/>
<rect height="3" width="24.1" x="69.53" y="26.15"/>
</g>
</svg>