<?xml version="1.0" encoding="iso-8859-1"?>
<!-- Uploaded to: SVG Repo, www.svgrepo.com, Generator: SVG Repo Mixer Tools -->
<svg height="800px" width="800px" version="1.1" id="Layer_1" xmlns="http://www.w3.org/2000/svg" xmlns:xlink="http://www.w3.org/1999/xlink" 
	 viewBox="0 0 512 512" xml:space="preserve">
<path style="fill:#626375;" d="M137.561,331.913L11.774,457.7c-12.422,12.422-12.422,32.561,0,44.984l0,0
	c12.422,12.422,32.561,12.422,44.984,0l125.786-125.786L137.561,331.913z"/>
<path style="fill:#75778C;" d="M22.969,468.895l125.786-125.786l33.788,33.788l0,0l-44.984-44.984L11.774,457.7
	c-12.422,12.421-12.422,32.561,0,44.984l0,0c1.932,1.932,4.053,3.563,6.301,4.895C10.849,495.377,12.481,479.385,22.969,468.895z"/>
<path style="fill:#C89173;" d="M497.668,15.644L486.462,4.438c-5.917-5.917-15.509-5.917-21.424,0L121.728,347.746l32.631,32.631
	L497.668,37.069C503.585,31.152,503.585,21.56,497.668,15.644z"/>
<path style="fill:#E0A381;" d="M476.232,15.632c5.916-5.916,15.508-5.916,21.423,0L486.462,4.437
	c-5.917-5.916-15.508-5.916-21.424,0L121.728,347.746l11.195,11.195L476.232,15.632z"/>
<circle style="fill:#C9CFF2;" cx="188.08" cy="394.532" r="50.535"/>
<path style="fill:#E6E9FF;" d="M163.544,369.988c17.832-17.832,45.672-19.548,65.437-5.158c-1.537-2.111-3.253-4.132-5.158-6.038
	c-19.737-19.737-51.737-19.737-71.474,0c-19.737,19.737-19.737,51.737,0,71.474c1.904,1.904,3.926,3.621,6.038,5.158
	C143.996,415.66,145.712,387.82,163.544,369.988z"/>
<circle style="fill:#626375;" cx="188.08" cy="394.532" r="23.179"/>
<path style="fill:#4D4E5C;" d="M232.276,488.79h-44.19c-4.637,0-8.396-3.759-8.396-8.396V394.53c0-4.637,3.759-8.396,8.396-8.396
	s8.396,3.759,8.396,8.396v77.467h35.793c4.637,0,8.396,3.759,8.396,8.396C240.672,485.031,236.913,488.79,232.276,488.79z"/>
<path style="fill:#626375;" d="M226.118,330.206c-6.169,0-11.542-1.828-15.651-5.937c-3.279-3.279-3.279-8.596,0-11.874
	c3.279-3.279,8.596-3.279,11.874,0c3.692,3.69,26.277-1.584,53.287-28.594c27.011-27.012,32.285-49.595,28.594-53.287
	c-1.639-1.639-2.46-3.788-2.46-5.937s0.819-4.298,2.46-5.937c3.279-3.279,8.596-3.279,11.874,0c1.415,1.413,7.2,1.9,17.348-2.553
	c11.374-4.991,24.138-14.239,35.939-26.04c27.012-27.011,32.287-49.595,28.594-53.287c-1.639-1.639-2.458-3.788-2.458-5.937
	c0-2.148,0.819-4.298,2.46-5.937c3.279-3.28,8.596-3.279,11.874,0c1.412,1.414,7.199,1.901,17.347-2.553
	c11.374-4.991,24.138-14.239,35.939-26.04c27.012-27.011,32.287-49.595,28.594-53.287c-3.279-3.279-3.279-8.596,0.001-11.874
	c3.279-3.279,8.596-3.279,11.874,0c15.901,15.902-2.35,50.791-28.594,77.036c-13.242,13.242-27.825,23.734-41.066,29.544
	c-4.689,2.057-11.417,4.431-18.221,4.86c-1.081,17.491-15.738,40.622-34.467,59.35c-13.242,13.242-27.826,23.734-41.066,29.544
	c-4.689,2.057-11.417,4.431-18.223,4.86c-1.08,17.491-15.737,40.621-34.467,59.35C268.04,315.139,243.819,330.206,226.118,330.206z"
	/>
<path style="fill:#4D4E5C;" d="M477.93,491.228c-15.512,0-28.134-12.62-28.134-28.135v-3.143l-4.713,4.712
	c-3.279,3.28-8.596,3.279-11.874,0c-3.279-3.279-3.279-8.596,0-11.874l19.048-19.045c2.4-2.4,6.011-3.12,9.15-1.82
	c3.138,1.3,5.183,4.362,5.183,7.757v23.413c0,6.254,5.087,11.342,11.341,11.342s11.342-5.088,11.342-11.342v-49.131
	c0-4.637,3.758-8.396,8.396-8.396c4.638,0,8.396,3.759,8.396,8.396v49.131C506.064,478.608,493.444,491.228,477.93,491.228z"/>
<path style="fill:#C9CFF2;" d="M489.272,413.963V37.069c0-4.637,3.758-8.396,8.396-8.396c4.638,0,8.396,3.759,8.396,8.396v376.895
	H489.272z"/>
</svg>