<?xml version="1.0" encoding="utf-8"?><!-- Uploaded to: SVG Repo, www.svgrepo.com, Generator: SVG Repo Mixer Tools -->
<svg width="800px" height="800px" viewBox="0 0 400 400" fill="none" xmlns="http://www.w3.org/2000/svg">
<path fill-rule="evenodd" clip-rule="evenodd" d="M328.24 196.931C332.693 206.01 345.056 216.461 349.367 212.755C354.492 208.35 361.664 203.05 360.445 200.614C359.366 198.456 352.025 183.692 343.498 172.852C335.167 162.262 325.652 155.559 324.043 156.095C308.762 161.189 301.182 182.397 286.309 188.334C272.565 193.82 201.424 183.82 192.96 190.144C190.016 192.343 192.233 207.157 192.233 210.476C192.233 216.228 188.308 239.641 192.233 243.57C196.783 248.113 218.142 244.185 223.666 243.57C246.972 240.983 276.757 245.258 301.11 245.258C302.849 245.258 301.851 225.74 303.808 220.849C305.704 216.114 313.848 208.141 328.24 196.931Z" stroke="#000000" stroke-opacity="0.9" stroke-width="16" stroke-linecap="round" stroke-linejoin="round"/>
<path d="M191.539 246C189.884 262.064 192.526 300.307 193 304" stroke="#000000" stroke-opacity="0.9" stroke-width="16" stroke-linecap="round" stroke-linejoin="round"/>
<path d="M212.47 255.131C211.353 269.922 211.736 284.805 211.736 299.649" stroke="#000000" stroke-opacity="0.9" stroke-width="16" stroke-linecap="round" stroke-linejoin="round"/>
<path d="M81 214C81 204.997 82.1931 181.971 92 173L141 192.703H269" stroke="#000000" stroke-opacity="0.9" stroke-width="16" stroke-linecap="round" stroke-linejoin="round"/>
<path d="M283 246C283.571 264.233 286.012 282.087 287 300" stroke="#000000" stroke-opacity="0.9" stroke-width="16" stroke-linecap="round" stroke-linejoin="round"/>
<path d="M302 246C307.154 274 304.261 283.247 303.53 302" stroke="#000000" stroke-opacity="0.9" stroke-width="16" stroke-linecap="round" stroke-linejoin="round"/>
<path d="M277.876 197.122C277.342 206.635 278.604 215.966 278.604 225.452" stroke="#000000" stroke-opacity="0.9" stroke-width="16" stroke-linecap="round" stroke-linejoin="round"/>
<path d="M313.827 142.669C308.992 129.706 309.596 147.262 310.897 152.839" stroke="#000000" stroke-opacity="0.9" stroke-width="16" stroke-linecap="round" stroke-linejoin="round"/>
<path d="M40 218.94C53.3659 218.445 66.5694 215.532 79.9658 214.046C116.447 209.998 160.708 199.615 154.394 236.066C153.133 243.344 153.339 266.979 147.505 272.156C145.355 274.065 132.283 271.544 128.9 271.544C113.469 271.544 62.2985 281.345 50.3326 273.381C43.921 269.113 40 212.514 40 204" stroke="#000000" stroke-opacity="0.9" stroke-width="16" stroke-linecap="round" stroke-linejoin="round"/>
<path d="M78.3928 248.341C110.295 226.789 144.748 270.049 116.588 294.201C83.9765 322.17 58.7959 280.443 73.1033 255.901" stroke="#000000" stroke-opacity="0.9" stroke-width="16" stroke-linecap="round" stroke-linejoin="round"/>
<path d="M80.9353 111.884C107.887 93.8647 136.994 130.033 113.203 150.226C85.6526 173.61 64.3793 138.723 76.4666 118.204" stroke="#000000" stroke-opacity="0.9" stroke-width="16" stroke-linecap="round" stroke-linejoin="round"/>
<path d="M97.6512 244.5C97.4165 260.199 96.5706 301.657 96 305.207" stroke="#000000" stroke-opacity="0.9" stroke-width="16" stroke-linecap="round" stroke-linejoin="round"/>
<path d="M275.479 211.961C237.273 228.073 194.822 221.535 155.414 230.847" stroke="#000000" stroke-opacity="0.9" stroke-width="16" stroke-linecap="round" stroke-linejoin="round"/>
<path d="M193.187 198.471C186.779 209.715 182.452 221.875 176.998 233.546" stroke="#000000" stroke-opacity="0.9" stroke-width="16" stroke-linecap="round" stroke-linejoin="round"/>
<path d="M322.081 142.664C321.595 143.15 321.104 143.641 320.613 144.126" stroke="#000000" stroke-opacity="0.9" stroke-width="16" stroke-linecap="round" stroke-linejoin="round"/>
</svg>