<?xml version="1.0" encoding="UTF-8" standalone="no"?>
<!-- Uploaded to: SVG Repo, www.svgrepo.com, Generator: SVG Repo Mixer Tools -->
<svg width="800px" height="800px" viewBox="-2.5 0 63 63" version="1.1" xmlns="http://www.w3.org/2000/svg" xmlns:xlink="http://www.w3.org/1999/xlink" xmlns:sketch="http://www.bohemiancoding.com/sketch/ns">
    
    <title>Horse-shoe</title>
    <desc>Created with Sketch.</desc>
    <defs>
</defs>
    <g id="Page-1" stroke="none" stroke-width="1" fill="none" fill-rule="evenodd" sketch:type="MSPage">
        <g id="Horse-shoe" sketch:type="MSLayerGroup" transform="translate(1.000000, 1.000000)" stroke="#6B6C6E" stroke-width="2">
            <path d="M52,54 L48.3,54 C53.1,45.3 56,35.5 56,28 C56,12.5 43.5,0 28,0 C12.5,0 0,12.5 0,28 C0,35.5 4,45.3 8.8,54 L5,54 L5,61 L17.9,61 C23.9,61 21.5,56.8 21.5,56.8 C21.5,56.8 9.8,38.5 9.8,27.8 C9.8,17.9 18,9.9 28.1,9.9 C38.2,9.9 46.4,17.9 46.4,27.8 C46.4,38.3 39.5,48.3 36.3,56.5 C35.2,59.2 36.4,61 40.1,61 L52,61 L52,54 L52,54 Z" id="Shape" sketch:type="MSShapeGroup">
</path>
            <path d="M27,6 L29,6" id="Shape" sketch:type="MSShapeGroup">
</path>
            <path d="M12,10 L14,10" id="Shape" sketch:type="MSShapeGroup">
</path>
            <path d="M41,10 L43,10" id="Shape" sketch:type="MSShapeGroup">
</path>
            <path d="M48,18 L50,18" id="Shape" sketch:type="MSShapeGroup">
</path>
            <path d="M6,17.9 L8,17.9" id="Shape" sketch:type="MSShapeGroup">
</path>
            <path d="M50,26 L52,26" id="Shape" sketch:type="MSShapeGroup">
</path>
            <path d="M50,35 L52,35" id="Shape" sketch:type="MSShapeGroup">
</path>
            <path d="M5,35 L7,35" id="Shape" sketch:type="MSShapeGroup">
</path>
            <path d="M8,44 L10,44" id="Shape" sketch:type="MSShapeGroup">
</path>
            <path d="M47,44 L49,44" id="Shape" sketch:type="MSShapeGroup">
</path>
            <path d="M43,54 L44.9,54" id="Shape" sketch:type="MSShapeGroup">
</path>
            <path d="M12,54 L14,54" id="Shape" sketch:type="MSShapeGroup">
</path>
            <path d="M4,26 L6,26" id="Shape" sketch:type="MSShapeGroup">
</path>
        </g>
    </g>
</svg>