<?xml version="1.0" encoding="utf-8"?><!-- Uploaded to: SVG Repo, www.svgrepo.com, Generator: SVG Repo Mixer Tools -->
<svg width="800px" height="800px" viewBox="0 0 400 400" fill="none" xmlns="http://www.w3.org/2000/svg">
<path d="M283.639 105.081C278.653 127.457 269.614 140.739 300.424 151.33C304.739 152.813 307.991 136.653 308.905 134.182C312.413 124.736 326.496 87.7406 320.557 79.1767C312.413 67.4326 243.499 43.3563 234.979 67.4326C230.316 80.6069 225.267 118.779 219.831 181.95C156.765 170.981 124.65 166.377 123.485 168.138C122.234 170.042 129.235 179.542 123.485 202.155C117.735 224.769 103.339 242.502 104.092 244.41C117.44 278.133 119.24 311.937 119.24 349.128" stroke="#000000" stroke-opacity="0.9" stroke-width="16" stroke-linecap="round" stroke-linejoin="round"/>
<path d="M284.965 104.654C279.794 103.839 264.77 99.7392 261.582 106.639C247.01 138.184 255.824 282.042 261.582 349.128" stroke="#000000" stroke-opacity="0.9" stroke-width="16" stroke-linecap="round" stroke-linejoin="round"/>
<path d="M252.204 195.291C297.793 215.392 309.988 212.722 303.134 223.668C297.448 232.748 286.797 260.975 281.44 267.936" stroke="#000000" stroke-opacity="0.9" stroke-width="16" stroke-linecap="round" stroke-linejoin="round"/>
<path d="M119.732 169.651C94.8767 180.251 86.4272 205.044 76.9999 225.203" stroke="#000000" stroke-opacity="0.9" stroke-width="16" stroke-linecap="round" stroke-linejoin="round"/>
<path d="M264.672 50C264.094 51.8481 265.247 52.8488 265.535 54.2733" stroke="#000000" stroke-opacity="0.9" stroke-width="16" stroke-linecap="round" stroke-linejoin="round"/>
<path d="M290.311 54.2734C289.733 56.1215 290.887 57.1223 291.174 58.5467" stroke="#000000" stroke-opacity="0.9" stroke-width="16" stroke-linecap="round" stroke-linejoin="round"/>
<path d="M239.384 52.8491C239.769 55.7922 242.452 56.9415 243.657 58.5468" stroke="#000000" stroke-opacity="0.9" stroke-width="16" stroke-linecap="round" stroke-linejoin="round"/>
<path d="M225.139 71.7141C227.585 71.8822 228.999 73.1727 230.837 73.8678" stroke="#000000" stroke-opacity="0.9" stroke-width="16" stroke-linecap="round" stroke-linejoin="round"/>
<path d="M219.574 99.4246C220.435 99.7123 221.298 99.9972 222.158 100.285" stroke="#000000" stroke-opacity="0.9" stroke-width="16" stroke-linecap="round" stroke-linejoin="round"/>
</svg>