<?xml version="1.0" encoding="iso-8859-1"?>
<!-- Uploaded to: SVG Repo, www.svgrepo.com, Generator: SVG Repo Mixer Tools -->
<svg fill="#000000" height="800px" width="800px" version="1.1" id="Layer_1" xmlns="http://www.w3.org/2000/svg" xmlns:xlink="http://www.w3.org/1999/xlink" 
	 viewBox="0 0 512 512" xml:space="preserve">
<g>
	<g>
		<g>
			<path d="M269.62,436.454H35.557c-9.948,0-18.013,8.065-18.013,18.013c0,9.948,8.065,18.013,18.013,18.013h234.064
				c9.948,0,18.013-8.065,18.013-18.013C287.633,444.519,279.569,436.454,269.62,436.454z"/>
			<path d="M467.635,413.673l-68.947-0.055L374.5,370.546c6.055,6.36,13.686,11.061,22.331,13.615
				c4.76,1.406,9.615,2.101,14.442,2.101c8.358,0,16.635-2.088,24.182-6.194l15.469-8.415c11.909-6.479,20.581-17.206,24.419-30.206
				c3.839-13,2.385-26.719-4.094-38.626l-8.414-15.467c-6.479-11.909-17.204-20.581-30.205-24.42
				c-13-3.841-26.719-2.387-38.626,4.092l-15.468,8.415c-21.293,11.585-30.971,36.303-24.487,58.686l-2.602-4.634
				c-0.919-1.636-1.971-3.251-3.127-4.806c-7.018-9.874-16.785-17.24-27.852-21.356c0.838-0.773,1.66-1.572,2.448-2.421
				c16.656-17.927,15.624-46.063-2.294-62.727L208.672,133.931c-1.018-0.946-2.112-1.867-3.259-2.744
				c-0.567-0.464-1.159-0.89-1.741-1.332c6.458-1.524,12.612-4.328,18.143-8.342c10.972-7.962,18.185-19.719,20.312-33.106
				l2.764-17.393c4.39-27.635-14.522-53.691-42.157-58.083l-17.392-2.764c-27.63-4.393-53.691,14.521-58.083,42.157l-2.763,17.389
				c-2.127,13.387,1.086,26.803,9.048,37.774c3.999,5.511,8.957,10.071,14.597,13.518c-5.437,1.899-10.627,4.602-15.419,8.079
				c-12.874,9.344-21.339,23.141-23.844,38.91L88.412,299.599H59.554C26.716,299.599,0,326.314,0,359.152
				c0,32.838,26.716,59.554,59.554,59.554l240.152-0.006l34.314,61.106c8.276,14.735,24.409,23.533,41.248,22.584l92.311,0.077
				c0.01,0,0.017,0,0.025,0c24.466,0,44.381-19.898,44.396-44.367C512.016,433.62,492.114,413.691,467.635,413.673z
				 M388.669,315.851c1.113-3.772,3.629-6.883,7.084-8.764l15.469-8.415c3.454-1.88,7.431-2.302,11.205-1.186
				c3.772,1.113,6.883,3.63,8.764,7.085l8.415,15.468c1.879,3.455,2.302,7.434,1.188,11.206c-1.114,3.772-3.629,6.883-7.084,8.763
				l-15.47,8.415c-3.454,1.878-7.434,2.3-11.204,1.188c-3.772-1.114-6.883-3.63-8.765-7.086l-8.415-15.468
				C387.977,323.603,387.555,319.622,388.669,315.851z M160.074,75.368l2.763-17.389c1.275-8.018,8.832-13.505,16.85-12.232
				l17.391,2.764c8.019,1.275,13.506,8.835,12.233,16.851l-2.764,17.393c-0.617,3.882-2.709,7.294-5.891,9.603
				c-3.185,2.31-7.079,3.245-10.961,2.625l-17.391-2.763c-3.884-0.617-7.294-2.709-9.604-5.893S159.456,79.253,160.074,75.368z
				 M144.467,173.588c0.986-6.206,4.329-11.658,9.416-15.349c5.086-3.69,11.302-5.179,17.513-4.196
				c4.177,0.664,8.091,2.435,11.323,5.124c0.238,0.198,0.479,0.389,0.727,0.575c0.268,0.199,0.502,0.394,0.687,0.566L296.07,264.55
				c0.005,0.005,0.011,0.01,0.016,0.014c3.382,3.143,3.577,8.449,0.436,11.831c-3.141,3.383-8.449,3.576-11.803,0.461
				l-70.183-65.454c-4.883-4.554-11.882-6.032-18.189-3.845c-6.307,2.188-10.886,7.685-11.899,14.284l-11.94,77.759h-47.636
				L144.467,173.588z M256.286,299.599h-47.333l5.929-38.614L256.286,299.599z M467.609,466.441c-0.001,0-0.004,0-0.005,0
				l-92.891-0.077c-0.006,0-0.012,0-0.018,0c-0.443,0-0.886,0.017-1.328,0.049c-3.222,0.241-6.351-1.428-7.934-4.247l-39.476-70.298
				c-3.188-5.679-9.194-9.192-15.706-9.192l-250.697,0.007c-12.974,0-23.529-10.555-23.529-23.529
				c0-12.974,10.555-23.528,23.529-23.528h44.286h84.125H299.76c7.645,0,14.846,3.75,19.263,10.029
				c0.118,0.168,0.238,0.334,0.363,0.497c0.257,0.34,0.476,0.67,0.651,0.983l52.399,93.306c3.186,5.674,9.184,9.188,15.691,9.192
				l79.481,0.065c0,0,0,0,0.001,0c4.617,0.004,8.371,3.761,8.367,8.377C475.971,462.69,472.217,466.441,467.609,466.441z"/>
		</g>
	</g>
</g>
</svg>