<?xml version="1.0" encoding="iso-8859-1"?>
<!-- Uploaded to: SVG Repo, www.svgrepo.com, Generator: SVG Repo Mixer Tools -->
<svg fill="#000000" height="800px" width="800px" version="1.1" id="Layer_1" xmlns="http://www.w3.org/2000/svg" xmlns:xlink="http://www.w3.org/1999/xlink" 
	 viewBox="0 0 511.999 511.999" xml:space="preserve">
<g>
	<g>
		<path d="M511.505,390.084c-1.954-6.81-9.071-10.624-15.821-8.798l-83.908,23.979L339.9,357.35c-2.099-1.399-4.574-2.15-7.1-2.15
			H38.4c-7.074,0-12.8,5.726-12.8,12.8c0,7.074,5.726,12.8,12.8,12.8h290.517l73.574,49.05c2.125,1.417,4.599,2.15,7.1,2.15
			c1.178,0,2.364-0.162,3.516-0.486l89.6-25.6C509.508,403.959,513.442,396.876,511.505,390.084z"/>
	</g>
</g>
<g>
	<g>
		<path d="M422.391,252.799c-35.285,0-64,28.706-64,64c0,35.285,28.715,64,64,64c35.294,0,64-28.715,64-64
			C486.391,281.506,457.685,252.799,422.391,252.799z M422.391,355.199c-21.205,0-38.4-17.195-38.4-38.4
			c0-21.205,17.195-38.4,38.4-38.4c21.205,0,38.4,17.195,38.4,38.4C460.792,338.005,443.597,355.199,422.391,355.199z"/>
	</g>
</g>
<g>
	<g>
		<path d="M217.6,79.999c-35.285,0-64,28.706-64,64s28.706,64,64,64c35.294,0,64-28.715,64-64
			C281.6,108.706,252.894,79.999,217.6,79.999z M217.6,182.399c-21.205,0-38.4-17.195-38.4-38.4s17.186-38.4,38.4-38.4
			c21.205,0,38.4,17.195,38.4,38.4S238.805,182.399,217.6,182.399z"/>
	</g>
</g>
<g>
	<g>
		<path d="M288.179,280.226l-128-76.8c-3.063-1.826-6.758-2.347-10.163-1.314c-3.422,0.998-6.272,3.379-7.876,6.562l-51.2,102.4
			c-3.157,6.323-0.589,14.012,5.734,17.178c1.835,0.913,3.789,1.348,5.709,1.348c4.702,0,9.216-2.586,11.46-7.074l45.013-90.035
			l116.147,69.683c6.076,3.635,13.926,1.673,17.562-4.386S294.238,283.861,288.179,280.226z"/>
	</g>
</g>
<g>
	<g>
		<path d="M332.8,406.399h-320c-7.074,0-12.8,5.726-12.8,12.8c0,7.074,5.726,12.8,12.8,12.8h320c7.074,0,12.8-5.726,12.8-12.8
			C345.6,412.125,339.874,406.399,332.8,406.399z"/>
	</g>
</g>
</svg>