<?xml version="1.0" encoding="utf-8"?>
<!-- Uploaded to: SVG Repo, www.svgrepo.com, Generator: SVG Repo Mixer Tools -->
<svg width="800px" height="800px" viewBox="0 0 1024 1024" class="icon"  version="1.1" xmlns="http://www.w3.org/2000/svg"><path d="M682.666667 554.666667a42.666667 42.666667 0 0 0-42.666667-42.666667h-21.333333c-23.552 0-21.333333 19.114667-21.333334 42.666667l-21.333333 362.666666a42.666667 42.666667 0 0 0 42.666667 42.666667h42.666666a42.666667 42.666667 0 0 0 42.666667-42.666667l-21.333333-362.666666zM426.666667 448h-85.333334l-21.333333 469.333333a42.666667 42.666667 0 0 0 42.666667 42.666667h42.666666a42.666667 42.666667 0 0 0 42.666667-42.666667l-21.333333-469.333333z" fill="#3F51B5" /><path d="M682.666667 554.666667h-85.333334V64c42.666667 0 192 85.333333 85.333334 490.666667zM448 64v277.333333h-42.666667V64h-42.666666v277.333333h-42.666667V64h-42.666667l-21.333333 298.666667 85.333333 85.333333h85.333334l85.333333-85.333333-21.333333-298.666667z" fill="#2196F3" /></svg>