<?xml version="1.0" encoding="iso-8859-1"?>
<!-- Uploaded to: SVG Repo, www.svgrepo.com, Generator: SVG Repo Mixer Tools -->
<svg fill="#000000" height="800px" width="800px" version="1.1" id="Layer_1" xmlns="http://www.w3.org/2000/svg" xmlns:xlink="http://www.w3.org/1999/xlink" 
	 viewBox="0 0 512 512" xml:space="preserve">
<g>
	<g>
		<path d="M146.324,0c-44.306,0-91.397,89.692-91.397,255.913c0,166.219,47.091,255.911,91.397,255.911
			c44.306,0,91.397-89.692,91.397-255.911C237.721,89.692,190.63,0,146.324,0z M146.324,18.279
			c29.667,0,62.243,71.83,70.903,180.667l-70.903,79.771l-70.903-79.771C84.08,90.109,116.656,18.279,146.324,18.279z
			 M146.324,493.544c-29.166,0-61.144-69.418-70.444-175.171l63.612,71.564c1.736,1.955,4.222,3.07,6.832,3.07
			c2.611,0,5.096-1.116,6.833-3.07l63.612-71.564C207.467,424.127,175.489,493.544,146.324,493.544z M218.683,288.705
			l-72.359,81.409l-72.359-81.409l-0.036,0.029c-0.473-10.65-0.723-21.597-0.723-32.821c0-10.659,0.226-21.066,0.654-31.208
			l65.631,73.836c1.736,1.955,4.222,3.07,6.832,3.07c2.611,0,5.096-1.116,6.833-3.07l65.631-73.836
			c0.427,10.142,0.654,20.549,0.654,31.208c0,11.224-0.251,22.171-0.724,32.821L218.683,288.705z"/>
	</g>
</g>
<g>
	<g>
		<path d="M457.073,255.913C457.073,89.692,409.982,0,365.676,0c-44.306,0-91.397,89.692-91.397,255.913
			c0,5.636,0.059,11.179,0.165,16.639c-0.097,0.533-0.165,1.078-0.165,1.64c0,0.705,0.097,1.384,0.248,2.042
			c3.613,150.753,47.265,232.952,89.123,235.525c0.654,0.147,1.328,0.241,2.026,0.241c0.698,0,1.372-0.094,2.026-0.241
			c41.857-2.573,85.51-84.772,89.122-235.525c0.152-0.658,0.249-1.337,0.249-2.042c0-0.562-0.069-1.107-0.165-1.64
			C457.014,267.092,457.073,261.549,457.073,255.913z M357.596,491.322c-29.704-14.087-60.345-93.668-64.531-207.914h64.531V491.322
			z M375.876,491.322V283.408h62.411C434.101,397.654,403.295,477.235,375.876,491.322z M438.731,265.129H292.62
			c-0.037-2.285-0.061-6.109-0.061-9.178c0-140.041,38.536-237.672,73.117-237.672c34.582,0,73.117,97.631,73.117,237.672
			C438.793,259.019,438.768,262.844,438.731,265.129z"/>
	</g>
</g>
</svg>