<?xml version="1.0" encoding="iso-8859-1"?>
<!-- Uploaded to: SVG Repo, www.svgrepo.com, Generator: SVG Repo Mixer Tools -->
<!DOCTYPE svg PUBLIC "-//W3C//DTD SVG 1.1//EN" "http://www.w3.org/Graphics/SVG/1.1/DTD/svg11.dtd">
<svg height="800px" width="800px" version="1.1" id="Capa_1" xmlns="http://www.w3.org/2000/svg" xmlns:xlink="http://www.w3.org/1999/xlink" 
	 viewBox="0 0 394.562 394.562" xml:space="preserve">
<g>
	<path style="fill:#FFEBD4;" d="M299.383,34.883c-54.153,17.693-103.534,48.587-146.768,91.822
		C87.269,192.051,21.012,289.238,20.009,342.229l9.09,9.09l329.781-329.78C343.997,23.298,323.419,27.03,299.383,34.883z"/>
	<path style="fill:#FFEBD4;" d="M43.241,365.462l9.085,9.085c24.053-0.501,59.742-14.866,100.747-40.579
		c38.784-24.32,80.62-57.861,114.781-92.023C347.97,161.831,368.014,76.889,372.96,35.742L43.241,365.462z"/>
	<path style="fill:#FFAC52;" d="M393.689,6.062c0.08,0.183,0.151,0.37,0.22,0.559C393.841,6.432,393.769,6.246,393.689,6.062z"/>
	<path style="fill:#FFAC52;" d="M393.259,5.19c0.111,0.199,0.212,0.405,0.309,0.612C393.472,5.596,393.371,5.391,393.259,5.19z"/>
	<path style="fill:#FFAC52;" d="M394.033,6.975c0.055,0.169,0.102,0.34,0.148,0.512C394.136,7.316,394.087,7.145,394.033,6.975z"/>
	<path style="fill:#FFAC52;" d="M394.285,7.913c0.035,0.16,0.065,0.323,0.092,0.486C394.35,8.237,394.32,8.075,394.285,7.913z"/>
	<path style="fill:#FFAC52;" d="M392.751,4.371c-0.34-0.493-0.721-0.965-1.16-1.403c-0.874-0.874-1.874-1.541-2.937-2.024
		C390.311,1.7,391.727,2.89,392.751,4.371z"/>
	<path style="fill:#FFAC52;" d="M394.444,8.865c0.019,0.159,0.033,0.32,0.044,0.482C394.477,9.185,394.463,9.025,394.444,8.865z"/>
	<polygon style="fill:#FFAC52;" points="22.027,372.533 22.028,372.533 22.026,372.532 	"/>
	<path style="fill:#FFAC52;" d="M392.753,4.373c0.149,0.216,0.286,0.441,0.418,0.668C393.04,4.815,392.903,4.591,392.753,4.373z"/>
	<path style="fill:#FFAC52;" d="M386.117,0.178c0.196,0.032,0.39,0.068,0.581,0.111C386.506,0.245,386.312,0.209,386.117,0.178z"/>
	<path style="fill:#FFAC52;" d="M386.999,0.362c0.22,0.057,0.438,0.118,0.652,0.189C387.435,0.48,387.218,0.418,386.999,0.362z"/>
	<path style="fill:#FFAC52;" d="M385.216,0.073c0.168,0.012,0.335,0.026,0.5,0.047C385.549,0.1,385.383,0.085,385.216,0.073z"/>
	<path style="fill:#FFAC52;" d="M387.846,0.619c0.242,0.086,0.481,0.178,0.714,0.281C388.325,0.796,388.087,0.704,387.846,0.619z"/>
	<path style="fill:#FFAC52;" d="M374.329,20.209c-4.053,0.204-9.263,0.597-15.45,1.329L29.098,351.319l14.142,14.143l329.72-329.72
		C373.71,29.505,374.117,24.264,374.329,20.209z"/>
	<path d="M394.512,9.611c-0.004-0.089-0.018-0.176-0.024-0.264c-0.011-0.162-0.025-0.323-0.044-0.482
		c-0.019-0.156-0.042-0.311-0.067-0.465c-0.027-0.163-0.057-0.326-0.092-0.486c-0.031-0.143-0.066-0.285-0.104-0.426
		c-0.046-0.172-0.094-0.344-0.148-0.512c-0.039-0.12-0.081-0.237-0.124-0.355c-0.069-0.188-0.14-0.376-0.22-0.559
		c-0.038-0.087-0.08-0.173-0.12-0.259c-0.097-0.207-0.198-0.413-0.309-0.612c-0.028-0.05-0.059-0.099-0.088-0.149
		c-0.132-0.227-0.269-0.452-0.418-0.668c-0.001-0.001-0.001-0.001-0.001-0.002c-1.025-1.481-2.441-2.671-4.097-3.427
		c-0.032-0.015-0.063-0.03-0.095-0.044c-0.233-0.103-0.472-0.195-0.714-0.281c-0.065-0.023-0.13-0.047-0.195-0.069
		c-0.214-0.071-0.432-0.132-0.652-0.189c-0.099-0.026-0.199-0.051-0.3-0.073c-0.191-0.043-0.386-0.079-0.581-0.111
		c-0.133-0.022-0.267-0.042-0.402-0.058c-0.165-0.02-0.332-0.034-0.5-0.047c-0.09-0.006-0.177-0.021-0.267-0.025
		c0,0-1.041-0.047-3.027-0.047c-21.856,0-136.314,5.427-243.45,112.562c-35.881,35.882-70.931,79.782-96.163,120.446
		C22.197,265.422-1.457,311.485,0.07,346.855c0.108,2.5,1.15,4.869,2.919,6.64l19.037,19.037l0.002,0.002l19.037,19.037
		c1.77,1.77,4.14,2.812,6.64,2.919c1.085,0.047,2.204,0.071,3.324,0.071c0.003,0,0,0,0.003,0
		c60.723,0,162.154-69.663,230.965-138.473c60.875-60.876,88.217-124.359,100.434-166.895
		C395.76,42.783,394.568,10.943,394.512,9.611z M153.073,333.968c-41.005,25.713-76.694,40.078-100.747,40.579l-9.085-9.085
		l-14.142-14.143l-9.09-9.09c1.003-52.991,67.26-150.178,132.606-215.523c43.235-43.235,92.615-74.129,146.768-91.822
		c24.036-7.853,44.614-11.585,59.496-13.345c6.187-0.732,11.396-1.125,15.45-1.329c-0.212,4.055-0.619,9.296-1.369,15.533
		c-4.947,41.147-24.99,126.089-105.106,206.204C233.693,276.107,191.857,309.648,153.073,333.968z"/>
</g>
</svg>