<?xml version="1.0" encoding="utf-8"?>

<!DOCTYPE svg PUBLIC "-//W3C//DTD SVG 1.1//EN" "http://www.w3.org/Graphics/SVG/1.1/DTD/svg11.dtd">
<!-- Uploaded to: SVG Repo, www.svgrepo.com, Generator: SVG Repo Mixer Tools -->
<svg height="800px" width="800px" version="1.1" id="_x32_" xmlns="http://www.w3.org/2000/svg" xmlns:xlink="http://www.w3.org/1999/xlink" 
	 viewBox="0 0 512 512"  xml:space="preserve">
<style type="text/css">
	.st0{fill:#000000;}
</style>
<g>
	<path class="st0" d="M300.232,93.922c25.938-0.01,46.952-21.022,46.961-46.961C347.184,21.022,326.171,0.008,300.232,0
		c-25.938,0.008-46.952,21.022-46.961,46.961C253.281,72.899,274.294,93.912,300.232,93.922z M300.232,18.784
		c15.556,0.027,28.149,12.62,28.176,28.176c-0.027,15.555-12.62,28.148-28.176,28.176c-15.556-0.028-28.149-12.621-28.176-28.176
		C272.083,31.404,284.677,18.812,300.232,18.784z"/>
	<path class="st0" d="M114.93,163.528c3.622,4.348,8.503,7.475,14.015,9.218l-0.01,0.019l49.327,16.537l0.119,0.036
		c5.705,1.743,11.612,2.615,17.528,2.615c5.494,0,10.988-0.752,16.326-2.265l35.487-10.035l5.806,27.599l-49.464,24.095
		c-15.785,6.126-28.094,18.894-33.561,34.964l-30.79,90.656l-0.037,0.138c-0.908,2.944-1.339,5.952-1.339,8.906
		c0,13.107,8.484,25.168,21.655,29.204c2.99,0.907,6.044,1.376,9.071,1.376c6.347,0.008,12.483-2.101,17.454-5.834
		c4.806-3.587,8.521-8.594,10.988-14.455l0.009,0.009l39.678-80.512l43.182-23.324l-13.501,27.636l-12.529,90.051l0.009-0.055
		c-0.22,1.476-0.321,2.935-0.321,4.366c0,14.978,10.97,28.002,26.196,30.213c1.66,0.229,3.302,0.357,4.953,0.357
		c6.879,0.038,13.749-2.274,19.032-6.887c5.219-4.513,8.704-10.952,10.364-18.345h0.009l21.307-82.153l28.048-47.007
		c11.034-15.308,16.868-33.588,16.868-52.18c0-5.788-0.587-11.602-1.734-17.372h0.01l-2.806-20.536l18.224,7.924l32.102,46.824
		c4.65,8.878,13.712,14.143,23.232,14.134c3.651,0,7.375-0.771,10.878-2.367c9.686-4.412,15.446-13.96,15.428-23.958
		c0.009-3.586-0.752-7.246-2.302-10.694l0.018-0.009l-24.095-55.729l-0.073-0.156c-5.054-10.676-13.767-19.198-24.581-23.994
		l-44.686-19.848c-18.262-8.108-37.972-12.264-57.839-12.264c-4.971,0-9.952,0.267-14.914,0.789l-33.964,3.577
		c-13.804,1.449-27.332,4.944-40.136,10.309l-41.861,12.456l-51.95-6.172l-0.01,0.046c-1.504-0.266-3.008-0.459-4.486-0.459
		c-12.281,0-23.186,8.604-25.746,21.059c-0.366,1.753-0.541,3.504-0.541,5.229C108.968,153.402,111.261,159.144,114.93,163.528z
		 M127.917,145.817l0.009-0.036c0.697-3.568,3.871-6.018,7.337-6.018l1.505,0.147l0.385,0.082l0.385,0.046l55.803,6.632
		l46.319-13.776l0.504-0.211c11.3-4.825,23.279-7.924,35.505-9.218l33.964-3.577c4.311-0.449,8.64-0.679,12.951-0.679
		c17.252,0,34.358,3.605,50.208,10.649l44.696,19.848c6.696,2.962,12.079,8.228,15.207,14.85l23.948,55.372l0.046,0.091
		c0.468,1.037,0.67,2.064,0.67,3.1c-0.009,2.862-1.624,5.595-4.421,6.861c-1.037,0.468-2.064,0.679-3.1,0.679
		c-2.852-0.009-5.586-1.624-6.852-4.43l-0.339-0.743l-35.707-52.078l-53.794-23.389l7.374,53.932l0.065,0.312
		c0.963,4.715,1.44,9.475,1.44,14.208c0,14.895-4.715,29.534-13.666,41.733l-0.266,0.358l-29.708,49.777l-22.022,84.924
		l-0.046,0.201c-0.982,4.458-2.669,6.99-4.403,8.493c-1.752,1.478-3.733,2.266-6.732,2.302l-2.293-0.174
		c-5.842-0.816-10.071-5.889-10.071-11.612l0.119-1.67l0.018-0.11l12.116-87.024l17.757-36.377c1-2.036,1.495-4.265,1.495-6.457
		c0.009-3.696-1.403-7.337-4.036-10.116c-2.834-2.99-6.732-4.604-10.686-4.604c-1.908,0-3.88,0.376-5.742,1.174l-0.404,0.164
		l-60.462,32.662l-42.494,86.226l-0.128,0.331c-1.33,3.33-3.174,5.604-5.081,7.025c-1.935,1.422-3.926,2.092-6.228,2.11
		c-1.11-0.009-2.302-0.174-3.614-0.569c-5.063-1.522-8.319-6.218-8.328-11.226c0-1.11,0.165-2.229,0.505-3.366l30.671-90.29
		c3.733-11.007,12.226-19.72,23.132-23.746l0.44-0.166l63.067-30.717l-12.978-61.627l-54.84,15.519
		c-3.669,1.037-7.438,1.55-11.208,1.55c-4.063,0-8.117-0.596-12.043-1.798l-49.079-16.455l-0.092-0.027
		c-2.394-0.743-4.201-2.018-5.32-3.366c-1.11-1.376-1.596-2.688-1.614-4.265L127.917,145.817z"/>
	<path class="st0" d="M109.537,141.918l-0.027,0.138c0-0.01,0.008-0.019,0.008-0.028v-0.008L109.537,141.918z"/>
	<path class="st0" d="M300.287,252.707v0.009c0.009,0,0.009,0,0.018,0.01L300.287,252.707z"/>
	<path class="st0" d="M486.424,481.925c-3.054-9.97-9.658-19.885-18.738-30.313c-27.287-30.993-78.164-66.112-132.609-86.163
		l-6.457,17.629c34.147,12.51,67.524,31.872,93.16,51.739c12.822,9.914,23.719,19.967,31.781,29.176
		c6.714,7.604,11.254,14.629,13.593,20.087c-0.257,0.229-0.532,0.468-0.927,0.752c-2.825,2.064-9.356,4.512-18.363,6.007
		c-9.006,1.55-20.49,2.375-33.642,2.375c-55.986,0.046-142.01-14.803-212.727-43.145c-52.51-20.995-92.536-46.254-119.044-70.533
		c-13.263-12.125-23.122-24.002-29.516-34.753c-6.43-10.768-9.273-20.324-9.246-27.708c0-2.33,0.34-4.412,0.835-6.365
		c1.624-1.578,4.201-3.082,8.089-4.219c4.724-1.386,11.007-2.073,17.904-2.055c13.822-0.018,29.974,2.642,42.457,5.348
		c6.246,1.357,11.612,2.706,15.382,3.714c1.88,0.514,3.376,0.926,4.375,1.22c1.009,0.284,1.486,0.44,1.495,0.44l5.466-17.976
		c-0.165-0.046-9.52-2.898-22.747-5.76c-13.263-2.852-30.331-5.76-46.428-5.77c-8.062,0.01-15.905,0.716-23.151,2.808
		c-7.172,2.09-14.069,5.695-18.885,12.079l-0.918,1.21l-0.486,1.449c-1.468,4.43-2.174,9.108-2.174,13.877
		c0.028,12.024,4.302,24.535,11.888,37.312c11.428,19.152,30.533,39.137,56.921,58.591c26.388,19.426,60.104,38.247,100.81,54.536
		c73.505,29.341,160.639,44.43,219.698,44.484c18.592-0.018,34.386-1.467,46.704-4.796c6.173-1.688,11.52-3.825,16.069-6.98
		c4.485-3.091,8.447-7.741,9.64-13.758l0.458-2.302L486.424,481.925z"/>
</g>
</svg>