<?xml version="1.0" encoding="iso-8859-1"?>
<!-- Uploaded to: SVG Repo, www.svgrepo.com, Generator: SVG Repo Mixer Tools -->
<svg height="800px" width="800px" version="1.1" id="Layer_1" xmlns="http://www.w3.org/2000/svg" xmlns:xlink="http://www.w3.org/1999/xlink" 
	 viewBox="0 0 512 512" xml:space="preserve">
<g>
	<path style="fill:#B2B2B2;" d="M80.701,431.297c-7.083,0-12.827-5.743-12.827-12.827V97.806c0-49.507,40.279-89.786,89.786-89.786
		s89.786,40.279,89.786,89.786c0,7.083-5.743,12.827-12.827,12.827s-12.827-5.743-12.827-12.827
		c0-35.363-28.77-64.133-64.133-64.133s-64.133,28.77-64.133,64.133v320.665C93.527,425.553,87.784,431.297,80.701,431.297z"/>
	<path style="fill:#B2B2B2;" d="M311.579,431.297c-7.083,0-12.827-5.743-12.827-12.827V97.806c0-49.507,40.279-89.786,89.786-89.786
		s89.786,40.279,89.786,89.786c0,7.083-5.743,12.827-12.827,12.827s-12.827-5.743-12.827-12.827
		c0-35.363-28.77-64.133-64.133-64.133s-64.133,28.77-64.133,64.133v320.665C324.406,425.553,318.663,431.297,311.579,431.297z"/>
</g>
<g>
	<path style="fill:#999999;" d="M67.874,350.062v68.408c0,7.083,5.743,12.827,12.827,12.827s12.827-5.743,12.827-12.827v-68.408
		H67.874z"/>
	<path style="fill:#999999;" d="M298.753,418.471c0,7.083,5.743,12.827,12.827,12.827s12.827-5.743,12.827-12.827v-68.408h-25.653
		V418.471z"/>
</g>
<path style="fill:#6DDAE1;" d="M475.57,315.561c-18.617,3.204-81.647-20.655-81.647-20.655s51.426-43.558,70.043-46.763
	c18.617-3.205,36.306,9.29,39.51,27.906C506.681,294.667,494.187,312.357,475.57,315.561z"/>
<circle style="fill:#C8F4F7;" cx="478.325" cy="273.1" r="8.551"/>
<path style="fill:#4FC4D3;" d="M491.563,298.459c-15.938,2.743-64.419-14.347-78.044-19.322
	c-11.216,8.674-19.594,15.769-19.594,15.769s63.03,23.858,81.647,20.655c11.874-2.044,21.248-9.984,25.656-20.296
	C498.256,296.77,495.015,297.864,491.563,298.459z"/>
<path style="fill:#6DDAE1;" d="M441.473,204.424c-7.276,17.432-61.208,57.847-61.208,57.847s-9.198-66.763-1.922-84.196
	c7.276-17.432,27.307-25.666,44.74-18.39C440.515,166.959,448.749,186.99,441.473,204.424z"/>
<circle style="fill:#C8F4F7;" cx="409.916" cy="179.038" r="8.551"/>
<g>
	<path style="fill:#4FC4D3;" d="M380.263,232.968c0,0-2.994-21.74-4.214-43.649c-2.35,25.3,4.214,72.95,4.214,72.95
		s53.933-40.413,61.208-57.846c3.894-9.33,3.342-19.401-0.681-27.866C431.371,194.67,380.263,232.968,380.263,232.968z"/>
	<path style="fill:#4FC4D3;" d="M441.983,416.333c-32.801,0-59.633-25.478-61.832-57.72h-0.326
		c-2.199,32.242-29.032,57.72-61.832,57.72s-59.633-25.478-61.832-57.72h-0.326c-2.199,32.242-29.032,57.72-61.832,57.72
		s-59.633-25.478-61.832-57.72h-0.326c-2.199,32.242-29.032,57.72-61.832,57.72s-59.633-25.478-61.832-57.72H8.017v145.368h495.961
		V358.613h-0.164C501.616,390.855,474.784,416.333,441.983,416.333z"/>
</g>
<path style="fill:#6DDAE1;" d="M503.814,358.613c-2.199,32.242-29.032,57.72-61.832,57.72s-59.633-25.478-61.832-57.72h-0.326
	c-2.199,32.242-29.032,57.72-61.832,57.72s-59.633-25.478-61.832-57.72h-0.326c-2.199,32.242-29.032,57.72-61.832,57.72
	s-59.633-25.478-61.832-57.72h-0.326c-2.199,32.242-29.032,57.72-61.832,57.72s-59.633-25.478-61.832-57.72H8.017v59.857H8.18
	c2.199,32.242,29.032,57.72,61.832,57.72s59.633-25.478,61.832-57.72h0.326c2.199,32.242,29.032,57.72,61.832,57.72
	s59.633-25.478,61.832-57.72h0.326c2.199,32.242,29.032,57.72,61.832,57.72s59.633-25.478,61.832-57.72h0.326
	c2.199,32.242,29.032,57.72,61.832,57.72s59.633-25.478,61.832-57.72h0.164v-59.857H503.814z"/>
<path d="M462.607,240.243c-19.769,3.403-64.999,41.037-73.864,48.547c-4.581,3.881-3.261,11.493,2.343,13.614
	c10.036,3.799,57.88,21.44,80.716,21.44c1.893,0,3.616-0.122,5.13-0.382h-0.001c11.114-1.912,20.82-8.039,27.325-17.251
	c6.506-9.212,9.035-20.406,7.123-31.52c-1.913-11.113-8.039-20.819-17.252-27.324C484.915,240.859,473.722,238.333,462.607,240.243z
	 M484.877,260.462c11.653,8.231,14.522,24.831,6.282,36.498c-4.035,5.714-10.054,9.513-16.947,10.7c-0.001,0-0.001,0-0.001,0
	c-9.981,1.726-40.714-7.287-64.331-15.501c19.507-15.636,45.456-34.396,55.447-36.114
	C472.216,254.857,479.162,256.427,484.877,260.462z"/>
<path d="M448.87,207.511c6.939-16.624,2.319-36.426-11.322-48.206c-13.702-11.831-33.932-13.53-49.445-4.222
	c-7.677,4.606-13.713,11.645-17.159,19.903c-7.727,18.512-0.207,76.868,1.378,88.378c0.816,5.927,7.943,8.924,12.749,5.322
	C394.369,261.718,441.144,226.024,448.87,207.511z M386.5,247.329c-2.741-24.85-4.665-56.811-0.76-66.167
	c4.081-9.774,13.949-16.274,24.562-16.111c10.665,0.162,20.352,7.008,24.111,16.964c2.349,6.223,2.223,13.184-0.339,19.321
	C430.172,210.684,406.096,231.797,386.5,247.329z"/>
<path d="M503.978,350.597h-0.162c-4.216,0-7.711,3.265-7.997,7.47c-1.923,28.177-25.569,50.249-53.834,50.249
	c-28.266,0-51.911-22.071-53.834-50.249c-0.288-4.206-3.782-7.47-7.997-7.47h-0.326c-4.216,0-7.711,3.265-7.997,7.47
	c-1.583,23.207-17.906,42.258-39.404,48.263V213.244c0-4.428-3.588-8.017-8.017-8.017c-4.428,0-8.017,3.588-8.017,8.017v195.031
	c-3.284-0.097-6.499-0.491-9.62-1.158V97.805c0-45.089,36.681-81.77,81.77-81.77s81.767,36.682,81.767,81.77
	c0,2.652-2.158,4.81-4.81,4.81s-4.81-2.158-4.81-4.81c0-39.784-32.366-72.15-72.15-72.15s-72.15,32.366-72.15,72.15v72.684
	c0,4.428,3.588,8.017,8.017,8.017s8.017-3.588,8.017-8.017V97.805c0-30.942,25.174-56.116,56.116-56.116
	s56.116,25.174,56.116,56.116c0,11.493,9.351,20.843,20.843,20.843s20.843-9.351,20.843-20.843
	c0-53.928-43.874-97.803-97.803-97.803s-97.803,43.874-97.803,97.803v47.565H101.544V97.805c0-30.942,25.174-56.116,56.116-56.116
	s56.116,25.174,56.116,56.116c0,11.493,9.351,20.843,20.843,20.843s20.843-9.351,20.843-20.843
	c0-53.928-43.874-97.803-97.803-97.803S59.857,43.877,59.857,97.805v235.154c0,4.428,3.588,8.017,8.017,8.017
	s8.017-3.588,8.017-8.017V97.805c0-45.089,36.681-81.769,81.769-81.769s81.77,36.682,81.77,81.769c0,2.652-2.158,4.81-4.81,4.81
	s-4.81-2.158-4.81-4.81c0-39.784-32.366-72.15-72.15-72.15s-72.15,32.367-72.15,72.15v308.223c-3.103,0.936-6.32,1.593-9.62,1.955
	v-32.268c0-4.428-3.588-8.017-8.017-8.017s-8.017,3.588-8.017,8.017v31.631c-23.582-4.537-41.993-24.557-43.68-49.279
	c-0.288-4.206-3.782-7.47-7.997-7.47H8.017c-4.428,0-8.017,3.588-8.017,8.017v145.368c0,4.428,3.588,8.017,8.017,8.017
	s8.017-3.588,8.017-8.017V398.825c12.905,15.61,32.404,25.525,53.979,25.525c26.697,0,50.217-15.182,61.995-37.551
	c11.778,22.368,35.298,37.551,61.995,37.551s50.217-15.182,61.995-37.551c11.778,22.368,35.298,37.551,61.995,37.551
	c26.697,0,50.217-15.182,61.995-37.551c11.778,22.368,35.298,37.551,61.995,37.551c21.574,0,41.074-9.914,53.979-25.525v105.157
	c0,4.428,3.588,8.017,8.017,8.017s8.017-3.588,8.017-8.017V358.613C511.995,354.185,508.406,350.597,503.978,350.597z
	 M101.544,238.363h189.192v60.926H101.544V238.363z M290.736,161.403v60.926H101.544v-60.926H290.736z M264.158,358.067
	c-0.288-4.206-3.782-7.47-7.997-7.47h-0.326c-4.216,0-7.711,3.265-7.997,7.47c-1.923,28.177-25.569,50.249-53.834,50.249
	s-51.911-22.071-53.834-50.249c-0.288-4.206-3.782-7.47-7.997-7.47h-0.326c-4.216,0-7.711,3.265-7.997,7.47
	c-1.126,16.502-9.71,30.902-22.302,40.008v-82.753h189.192v85.55C275.835,392.1,265.408,376.376,264.158,358.067z"/>
</svg>