<?xml version="1.0" encoding="utf-8"?>
<!-- Uploaded to: SVG Repo, www.svgrepo.com, Generator: SVG Repo Mixer Tools -->
<svg width="800px" height="800px" viewBox="0 0 24 24" fill="none" xmlns="http://www.w3.org/2000/svg">
<g id="style=stroke">
<g id="document">
<path id="rec (Stroke)" fill-rule="evenodd" clip-rule="evenodd" d="M2.25 7C2.25 3.82436 4.82436 1.25 8 1.25H16C19.1756 1.25 21.75 3.82436 21.75 7V17C21.75 20.1756 19.1756 22.75 16 22.75H8C4.82436 22.75 2.25 20.1756 2.25 17V7ZM8 2.75C5.65279 2.75 3.75 4.65279 3.75 7V17C3.75 19.3472 5.65279 21.25 8 21.25H16C18.3472 21.25 20.25 19.3472 20.25 17V7C20.25 4.65279 18.3472 2.75 16 2.75H8Z" fill="#000000"/>
<path id="line (Stroke)" fill-rule="evenodd" clip-rule="evenodd" d="M7.25 8.2002C7.25 7.78598 7.58579 7.4502 8 7.4502H16C16.4142 7.4502 16.75 7.78598 16.75 8.2002C16.75 8.61441 16.4142 8.9502 16 8.9502H8C7.58579 8.9502 7.25 8.61441 7.25 8.2002Z" fill="#000000"/>
<path id="line (Stroke)_2" fill-rule="evenodd" clip-rule="evenodd" d="M7.25 12.2002C7.25 11.786 7.58579 11.4502 8 11.4502H16C16.4142 11.4502 16.75 11.786 16.75 12.2002C16.75 12.6144 16.4142 12.9502 16 12.9502H8C7.58579 12.9502 7.25 12.6144 7.25 12.2002Z" fill="#000000"/>
<path id="line (Stroke)_3" fill-rule="evenodd" clip-rule="evenodd" d="M8.25 16.2002C8.25 15.786 8.58579 15.4502 9 15.4502H15C15.4142 15.4502 15.75 15.786 15.75 16.2002C15.75 16.6144 15.4142 16.9502 15 16.9502H9C8.58579 16.9502 8.25 16.6144 8.25 16.2002Z" fill="#000000"/>
</g>
</g>
</svg>