<?xml version="1.0" encoding="iso-8859-1"?>
<!-- Uploaded to: SVG Repo, www.svgrepo.com, Generator: SVG Repo Mixer Tools -->
<svg fill="#000000" height="800px" width="800px" version="1.1" id="Layer_1" xmlns="http://www.w3.org/2000/svg" xmlns:xlink="http://www.w3.org/1999/xlink" 
	 viewBox="0 0 512 512" xml:space="preserve">
<g>
	<g>
		<g>
			<path d="M448,85.333H64c-35.355,0-64,28.645-64,64V192v170.667c0,35.355,28.645,64,64,64h384c35.355,0,64-28.645,64-64V192
				v-42.667C512,113.978,483.355,85.333,448,85.333z M42.667,149.333C42.667,137.542,52.209,128,64,128h384
				c11.791,0,21.333,9.542,21.333,21.333v21.333H42.667V149.333z M448,384H64c-11.791,0-21.333-9.542-21.333-21.333V213.333h426.667
				v149.333C469.333,374.458,459.791,384,448,384z"/>
			<path d="M384,277.333H231.013c-8.784-24.858-32.474-42.667-60.346-42.667c-35.355,0-64,28.645-64,64s28.645,64,64,64
				c27.872,0,51.562-17.808,60.346-42.667H320v21.333c0,11.782,9.551,21.333,21.333,21.333c11.782,0,21.333-9.551,21.333-21.333V320
				H384c11.782,0,21.333-9.551,21.333-21.333C405.333,286.885,395.782,277.333,384,277.333z M170.667,320
				c-11.791,0-21.333-9.542-21.333-21.333s9.542-21.333,21.333-21.333S192,286.875,192,298.667S182.458,320,170.667,320z"/>
		</g>
	</g>
</g>
</svg>